<svg class="hidden" xmlns="http://www.w3.org/2000/svg" viewBox="0 0 21 21">
    <defs>
      <mask
        id="forkRoadMask"
        maskUnits="userSpaceOnUse"
        x="0"
        y="0"
        width="100%"
        height="100%"
      >
        <!-- White = visible, black = transparent -->
        <rect width="100%" height="100%" fill="white"></rect>
        <path
          fill="black"
          d="M10.07.02c1.18-.11,2.38.29,3.29,1.04l6.61,6.61c1.39,1.66,1.38,4.07-.04,5.72-1.97,2.28-4.56,4.32-6.59,6.58-1.67,1.38-4.07,1.37-5.72-.04-2.28-1.95-4.32-4.57-6.58-6.59-1.38-1.65-1.38-4.05.02-5.69L7.67,1.04c.64-.53,1.57-.94,2.4-1.02ZM7.88,7.13c.14-.01.3.02.45,0,.9-.11.95-1.43-.09-1.5-.58-.04-1.74-.06-2.3,0-.34.04-.63.29-.68.64-.06.41-.06,2.18.02,2.55.14.66,1.13.77,1.41.14.11-.25.04-.49.09-.75.87.92,1.91,1.7,2.47,2.87.87,1.82.37,3.99.52,5.95.17.82,1.37.78,1.48-.04.16-1.2-.08-2.77,0-4.03.15-2.16,1.53-3.37,2.98-4.76.05.3-.03.6.16.87.4.56,1.28.32,1.36-.38.05-.44.06-2.12-.02-2.51-.06-.28-.33-.52-.62-.56-.49-.07-1.93-.06-2.43,0-.9.1-.89,1.38-.04,1.5.16.02.33-.03.49.03-.9.98-2.02,1.84-2.58,3.07l-.1-.03c-.58-1.23-1.71-2.05-2.57-3.06Z"
        ></path>
      </mask>
    </defs>
</svg>