<?xml version="1.0" encoding="UTF-8"?>
<svg id="Layer_2" xmlns="http://www.w3.org/2000/svg" viewBox="0 0 383.27 357.4">
    <g id="subject">
        <path
            d="M212.11,43.54c9.34-8.99,24.26-24.4,3.95-31.13l-61.77.02v63h62.5c.76,0,5.61-2.53,6.38-3.36,10-10.68-5.99-20.43-11.06-28.53Z"
            fill="var(--icon-subject-color)" />
        <polygon points="234.36 208.58 220.35 230.31 293.45 357.31 319.64 357.08 234.36 208.58"
            ffill="var(--icon-subject-color)" />
        <path
            d="M94.43,180.9l-11.71,18.96,14.23,10.21h0s11.94,8.57,11.94,8.57c3.33,1.92,7.61,2.14,11.14.61,4.78-2.07,21.32-17.22,24.09-17.12l23.77,17.4c2.18.82,6.01.93,8.24.43,1.73-.39,5.68-3.21,10.04-6.57h0s17.03-12.77,17.03-12.77l-11.26-19.21h.02s-37.65-65.48-37.65-65.48v15.45c0,6.35-5.03,11.24-11.38,11.24s-11.3-4.88-11.3-11.24v-14.96s-37.16,64.47-37.16,64.47"
            fill="var(--icon-subject-color)" />
    </g>
    <g id="field">
        <path
            d="M383.27,343.19v6c-2.34,4.31-4.32,7-9.4,8.2l-54.23-.32-85.27-148.5,21.66-38.25c4.65-4.45,11.22-4.6,16.08-.38l111.16,173.24Z" fill="var(--icon-field-color)" />
        <rect x="131.61" y="0" width="22.68" height="142.73" rx="11.34" ry="11.34" fill="var(--icon-field-color)" />
        <path
            d="M293.49,357.4H8.67c-.28,0-4.4-2.29-4.84-2.65-2.93-2.41-4.92-8.49-3.19-12.14l82.14-142.72,26.17,18.78c3.33,1.92,7.61,2.14,11.14.61,4.78-2.07,21.32-17.22,24.09-17.12l23.77,17.4c2.18.82,6.01.93,8.24.43,4.66-1.05,25.46-19.73,27.07-19.34l90.23,156.75Z" fill="var(--icon-field-color)" />
    </g>
</svg>