<?xml version="1.0" encoding="UTF-8"?>
<svg id="Layer_2" xmlns="http://www.w3.org/2000/svg" viewBox="0 0 96 96">
    <g id="subject">
        <path
            d="M12.4,45.67C13.7,27.35,28.93,12.56,47.41,12.18c1.02-.02,2.01.05,3.02.16-2.63,2.72-8.16,4.32-6.13,9.14.79,1.88,3.48,2.87,4.81,4.36-7.33-.19-14.46,3.15-18.77,9.06-7.33,10.06-5,23.92,4.97,31.17h-17.99c-2.84-4.64-4.35-9.95-4.77-15.36-.01-.19-.15-.33-.15-.35v-4.7Z" fill="var(--icon-subject-color)" />
        <path
            d="M41.76,83.25l6.68-5.14c1.02-1.17,1.4-2.58.85-4.08-.69-1.87-3.17-2.7-4.45-4.14,10.89,1.7,21.54-5.19,24.56-15.75,3.04-10.62-2.26-21.97-12.32-26.37-1.29-.56-3.09-.9-4.21-1.52s-5.28-3.79-6.19-4.67-1.19-1.96-.65-3.14c.71-1.53,5.66-4.17,7.01-5.62.21-.19.39-.2.66-.19,2.33.07,6.96,1.76,9.15,2.76,20.43,9.27,27.5,35.07,14.35,53.46-7.97,11.15-21.85,16.87-35.44,14.4Z" fill="var(--icon-subject-color)" />
        <path
            d="M15.59,68.02h23.13c2.94,1.72,5.52,3.99,8.31,5.93,1.03,1.26.73,2.13-.36,3.14-2.13,1.98-5.19,3.77-7.52,5.55H15.29c-.63-.26-1.19-.83-1.27-1.52.24-3.62-.37-7.74-.02-11.3.09-.97.61-1.59,1.58-1.79Z" fill="var(--icon-subject-color)" />
        <path
            d="M63.05,82.67l5.57-3.02c4.42-2.89,8.18-6.68,11.1-11.07,2.06,1.9,4.96,3.33,6.98,5.21,1.27,1.18,1.18,2.15-.08,3.3-2.17,1.98-5.18,3.7-7.48,5.58h-16.08Z" fill="var(--icon-subject-color)" />
    </g>
    <g id="field">
        <path
            d="M80.46,0H15.54C6.96,0,0,6.96,0,15.54v64.93c0,8.58,6.96,15.54,15.54,15.54h64.93c8.58,0,15.54-6.96,15.54-15.54V15.54c0-8.58-6.96-15.54-15.54-15.54ZM12.4,50.36v-4.7C13.7,27.35,28.93,12.56,47.41,12.18c1.02-.02,2.01.05,3.02.16-2.63,2.72-8.16,4.32-6.13,9.14.79,1.88,3.48,2.87,4.81,4.36-7.33-.19-14.46,3.15-18.77,9.06-7.33,10.06-5,23.92,4.97,31.17h-17.99c-2.84-4.64-4.35-9.95-4.77-15.36-.01-.19-.15-.33-.15-.35ZM15.29,82.64c-.63-.27-1.19-.83-1.27-1.52.24-3.62-.37-7.74-.02-11.3.09-.97.61-1.59,1.58-1.79h23.13c2.94,1.72,5.52,3.99,8.31,5.93,1.03,1.26.73,2.13-.36,3.14-2.13,1.98-5.19,3.77-7.52,5.55H15.29ZM41.76,83.25l6.68-5.14c1.02-1.17,1.4-2.58.85-4.08-.69-1.87-3.17-2.7-4.45-4.14,10.89,1.7,21.54-5.19,24.56-15.75,3.04-10.62-2.26-21.97-12.32-26.37-1.29-.56-3.09-.9-4.21-1.52-1.09-.6-5.28-3.78-6.19-4.67-.91-.88-1.19-1.96-.65-3.14.71-1.53,5.66-4.17,7.01-5.62.21-.19.39-.2.66-.19,2.33.07,6.96,1.76,9.15,2.76,20.43,9.27,27.5,35.07,14.35,53.46-7.97,11.15-21.85,16.87-35.44,14.4ZM86.61,77.08c-2.17,1.98-5.18,3.7-7.48,5.58h-16.08l5.57-3.02c4.42-2.89,8.18-6.68,11.1-11.07,2.06,1.9,4.96,3.33,6.98,5.21,1.27,1.18,1.18,2.15-.08,3.3Z"
            fill="var(--icon-field-color)" />
    </g>
</svg>