<?xml version="1.0" encoding="UTF-8"?>
<svg id="Layer_2" xmlns="http://www.w3.org/2000/svg" viewBox="0 0 71.39 61.83">
    <g id="Field">
        <path
            d="M53.54,0H17.85L0,30.91l17.85,30.91h35.7l17.85-30.91L53.54,0ZM38.29,11.78c.04-.14,2.34-.83,2.72-.99,3.44-1.5,4.85-4.13,5.83-7.6h.35c.9,3,2.12,5.66,5,7.19,1.07.57,2.23.79,3.3,1.29.43.2.36.36-.05.56-.65.32-1.6.5-2.3.8-2.39,1.03-3.98,2.63-5.02,5.01-.21.48-.68,2.24-.87,2.47-.11.13-.2.16-.37.13-.16-.03-.99-2.72-1.2-3.14-.83-1.72-2.48-3.4-4.19-4.23-.7-.34-2.72-.83-3.14-1.17-.11-.09-.11-.21-.08-.32ZM27.49,47.53c-.16.4-.26.87-.84.53-.25-.15-1.74-4.66-2.04-5.38-1.88-4.42-5.14-7.64-9.56-9.51-1.71-.72-3.56-1.17-5.24-1.94l-.12-.38.34-.41c4.74-1.49,8.99-3.14,12.16-7.15,2.22-2.8,3.12-6.1,4.35-9.4.14-.25.46-.24.71-.18,1.24,3.21,2.07,6.46,4.18,9.26,3.23,4.29,7.66,5.94,12.6,7.55.23.16.23.6,0,.76-3.21,1.2-6.42,2.04-9.19,4.15-4.7,3.58-5.28,6.99-7.35,12.09ZM52.28,51.4c-2.9,1.51-4.17,4.16-5.06,7.17-.02.12-.25.1-.32.08-.19-.06-1.15-3.11-1.48-3.72-1.54-2.79-4.11-3.96-7.05-4.82-.11-.02-.1-.25-.08-.32.05-.17,2.84-1.05,3.31-1.28,2.96-1.45,4.4-4.27,5.25-7.32h.35c1.07,3.51,2.47,6.11,5.96,7.61.49.21,2.21.66,2.47.87.13.11.16.2.13.37-.04.18-2.94,1.08-3.47,1.36Z"
            fill="var(--icon-field-color)"  />
    </g>
    <g id="Accent">
        <path
            d="M27.14,13.71c1.24,3.21,2.07,6.46,4.18,9.26,3.23,4.29,7.66,5.94,12.6,7.55.23.16.23.6,0,.76-3.21,1.2-6.42,2.04-9.19,4.15-4.7,3.58-5.28,6.99-7.35,12.09-.16.4-.26.87-.84.53-.25-.15-1.74-4.66-2.04-5.38-1.88-4.42-5.14-7.64-9.56-9.51-1.71-.72-3.56-1.17-5.24-1.94l-.12-.38.34-.41c4.74-1.49,8.99-3.14,12.16-7.15,2.22-2.8,3.12-6.1,4.35-9.4.14-.25.46-.24.71-.18Z" fill="var(--icon-accent-color)" />
    </g>
    <g id="Subject">
        <path
            d="M47.08,3.17c.9,3.01,2.12,5.66,5,7.2,1.07.57,2.23.79,3.3,1.29.43.2.36.36-.05.56-.65.32-1.6.5-2.3.8-2.39,1.03-3.98,2.63-5.01,5.01-.21.48-.68,2.24-.87,2.47-.11.13-.2.16-.37.13s-.99-2.72-1.2-3.14c-.83-1.72-2.48-3.4-4.19-4.23-.7-.34-2.72-.83-3.14-1.17-.11-.09-.11-.21-.08-.32.04-.14,2.34-.83,2.72-.99,3.44-1.5,4.85-4.13,5.83-7.6h.35Z" fill="var(--icon-subject-color)" />
        <path
            d="M47.07,41.19c1.07,3.5,2.47,6.1,5.96,7.6.49.21,2.21.66,2.47.87.13.11.16.2.13.37-.04.18-2.94,1.08-3.47,1.36-2.9,1.51-4.17,4.16-5.06,7.17-.02.12-.25.1-.32.08-.19-.06-1.15-3.11-1.48-3.72-1.54-2.79-4.11-3.96-7.05-4.82-.11-.02-.1-.25-.08-.32.05-.17,2.84-1.05,3.31-1.28,2.96-1.45,4.4-4.27,5.25-7.32h.35Z" fill="var(--icon-subject-color)" />
    </g>
</svg>