<?xml version="1.0" encoding="UTF-8"?>
<svg id="Layer_2" xmlns="http://www.w3.org/2000/svg" viewBox="0 0 492 492">
    <g id="field">
        <path d="M31.46,463c-.34,0-.66-.07-.96-.19.29.12.62.19.96.19h0Z"
            fill="var(--icon-field-color)" />
        <path
            d="M244.2,214.9c-9.2,0-16,8.4-16,35.4s6.8,35.4,16,35.4,16-8.4,16-35.4-6.8-35.4-16-35.4Z"
            fill="var(--icon-field-color)" />
        <path
            d="M419,373v-36h43v-13.51c-37,0-63.41-26.78-63.41-73.18s26.41-73.19,63.41-73.18v-64.68c-6.21,34.79-30.11,54.46-61.8,54.46-37,0-63.4-26.8-63.4-73.2,0-30.21,11.2-52.11,29.22-63.71h-46.03v134h-47V60h-24v-30h-33.64c18.02,11.6,29.22,33.5,29.22,63.71,0,46.4-26.4,73.2-63.4,73.2s-63.4-26.8-63.4-73.2c0-30.21,11.2-52.11,29.22-63.71h-47.01v134h-47V60h-24v117.2c35.1,1.69,59.8,28.23,59.8,73.11s-24.7,71.42-59.8,73.11v13.59h25v126h36.61c-12.43-12.51-19.82-31.56-19.82-56.1,0-46.4,26.4-73.2,63.4-73.2s63.4,26.8,63.4,73.2c0,24.54-7.39,43.59-19.82,56.1h47.23v-90h-24v-36h71v126h36.62c-12.43-12.51-19.82-31.56-19.82-56.1,0-46.4,26.4-73.2,63.4-73.2s63.4,26.8,63.4,73.2c0,24.54-7.39,43.59-19.82,56.1h47.22v-90h-24ZM164,320h-47v-104h-24v-36h71v140ZM244.2,323.5c-37,0-63.4-26.8-63.4-73.2s26.4-73.2,63.4-73.2,63.4,26.8,63.4,73.2-26.4,73.2-63.4,73.2ZM382,320h-47v-104h-24v-36h71v140Z"
            fill="var(--icon-field-color)" />
        <path
            d="M150.19,406.9c0-27-6.8-35.4-16-35.4s-16,8.4-16,35.4,6.8,35.4,16,35.4,16-8.4,16-35.4Z"
            fill="var(--icon-field-color)" />
        <path
            d="M368.2,406.9c0-27-6.8-35.4-16-35.4s-16,8.4-16,35.4,6.8,35.4,16,35.4,16-8.4,16-35.4Z"
            fill="var(--icon-field-color)" />
        <path d="M384.2,93.71c0,27,6.8,35.4,16,35.4s16-8.4,16-35.4-6.8-35.4-16-35.4-16,8.4-16,35.4Z"
            fill="var(--icon-field-color)" />
        <path d="M29,215.4v69.8c7.32-2.13,12.4-11.57,12.4-34.9s-5.08-32.77-12.4-34.9Z"
            fill="var(--icon-field-color)" />
        <path
            d="M165.19,93.71c0,27,6.8,35.4,16,35.4s16-8.4,16-35.4-6.8-35.4-16-35.4-16,8.4-16,35.4Z"
            fill="var(--icon-field-color)" />
        <path
            d="M459.54,30h-25.16c14.05,9.05,23.94,24.36,27.62,44.98v-42.52c0-1.36-1.1-2.46-2.46-2.46Z"
            fill="var(--icon-field-color)" />
        <path
            d="M445.99,250.3c0,27,6.8,35.4,16,35.4,0,0,0,0,.01,0v-70.8s0,0-.01,0c-9.2,0-16,8.4-16,35.4Z"
            fill="var(--icon-field-color)" />
    </g>
    <g id="subject">
        <path d="M100,24v140h-47V60h-24V24h71Z" fill="var(--icon-subject-color)" />
        <path
            d="M117.79,93.71c0-46.4,26.4-73.2,63.4-73.2s63.4,26.8,63.4,73.2-26.4,73.2-63.4,73.2-63.4-26.8-63.4-73.2ZM197.19,93.71c0-27-6.8-35.4-16-35.4s-16,8.4-16,35.4,6.8,35.4,16,35.4,16-8.4,16-35.4Z"
            fill="var(--icon-subject-color)" />
        <path d="M320,24v140h-47V60h-24V24h71Z" fill="var(--icon-subject-color)" />
        <path
            d="M336.8,93.71c0-46.4,26.4-73.2,63.4-73.2s63.4,26.8,63.4,73.2-26.4,73.2-63.4,73.2-63.4-26.8-63.4-73.2ZM416.2,93.71c0-27-6.8-35.4-16-35.4s-16,8.4-16,35.4,6.8,35.4,16,35.4,16-8.4,16-35.4Z"
            fill="var(--icon-subject-color)" />
        <path d="M164,180v140h-47v-104h-24v-36h71Z" fill="var(--icon-subject-color)" />
        <path
            d="M180.8,250.3c0-46.4,26.4-73.2,63.4-73.2s63.4,26.8,63.4,73.2-26.4,73.2-63.4,73.2-63.4-26.8-63.4-73.2ZM260.2,250.3c0-27-6.8-35.4-16-35.4s-16,8.4-16,35.4,6.8,35.4,16,35.4,16-8.4,16-35.4Z"
            fill="var(--icon-subject-color)" />
        <path d="M382,180v140h-47v-104h-24v-36h71Z" fill="var(--icon-subject-color)" />
        <path
            d="M70.79,406.9c0-46.4,26.4-73.2,63.4-73.2s63.4,26.8,63.4,73.2-26.4,73.2-63.4,73.2-63.4-26.8-63.4-73.2ZM150.19,406.9c0-27-6.8-35.4-16-35.4s-16,8.4-16,35.4,6.8,35.4,16,35.4,16-8.4,16-35.4Z"
            fill="var(--icon-subject-color)" />
        <path d="M272,337v140h-47v-104h-24v-36h71Z" fill="var(--icon-subject-color)" />
        <path
            d="M288.8,406.9c0-46.4,26.4-73.2,63.4-73.2s63.4,26.8,63.4,73.2-26.4,73.2-63.4,73.2-63.4-26.8-63.4-73.2ZM368.2,406.9c0-27-6.8-35.4-16-35.4s-16,8.4-16,35.4,6.8,35.4,16,35.4,16-8.4,16-35.4Z"
            fill="var(--icon-subject-color)" />
        <path
            d="M29,177.2v38.21c7.32,2.13,12.4,11.57,12.4,34.9s-5.08,32.77-12.4,34.9v38.21c35.1-1.69,59.8-28.23,59.8-73.11s-24.7-71.42-59.8-73.11Z"
            fill="var(--icon-subject-color)" />
        <path
            d="M398.59,250.3c0,46.82,26.88,73.68,64.4,73.19l.02-.02v-37.82c-.34.02-.67.04-1.01.04-9.2,0-16-8.4-16-35.4s6.8-35.4,16-35.4c.34,0,.68.02,1.01.04v-37.82s-.01-.01-.02-.02c-37.52-.49-64.4,26.38-64.4,73.19Z"
            fill="var(--icon-subject-color)" />
        <path d="M31.46,463h22.54v-126h-25v123.54c0,1.36,1.1,2.46,2.46,2.46Z"
            fill="var(--icon-subject-color)" />
        <path d="M419,337v36h24v90h18.54c1.36,0,2.46-1.1,2.46-2.46v-123.54h-45Z"
            fill="var(--icon-subject-color)" />
        <path
            d="M462,32.46v428.08c0,1.36-1.1,2.46-2.46,2.46H31.46c-1.36,0-2.46-1.1-2.46-2.46V32.46c0-1.36,1.1-2.46,2.46-2.46h428.08c1.36,0,2.46,1.1,2.46,2.46ZM460.06,0H31.97C14.31,0,0,14.31,0,31.97v428.06c0,17.66,14.31,31.97,31.97,31.97h428.06c17.66,0,31.97-14.31,31.97-31.97V31.94c0-17.61-14.33-31.94-31.94-31.94h0Z"
            fill="var(--icon-subject-color)" />
    </g>
</svg>