<?xml version="1.0" encoding="UTF-8"?>
<svg id="Layer_2" xmlns="http://www.w3.org/2000/svg" viewBox="0 0 61.65 70.99">
    <g id="subject">
        <path
            d="M11.37.04l45.38-.04c2.56.34,4.64,2.47,4.9,5.03l-.02,55.64c-.35,2.56-2.47,4.62-5.04,4.89-.74.08-3.28-.14-3.65.15-.35.4-.15.95-.27,1.48-.43,1.93-2.25,3.61-4.24,3.8H3.87c-1.97-.18-3.7-1.9-3.87-3.87V11.9C.38,5.76,5.3.73,11.37.04ZM52.73,13.22v47.47c0,.11.35.33.51.36.43.08,2.61.07,3.03-.03.69-.15,1.07-1.01,1.13-1.65l-.07-53.83-.65-.81-44.92-.06c-1.81.17-4,1.33-5.18,2.7-.63.72-1.79,2.22-.23,2.56h26.01c.82,0,1.03.33,1.1,1.08.41,4.49-.32,9.62-.01,14.18-.01.34.33.77.67.8.3.03.5-.14.72-.3.7-.5,3.5-3.78,3.94-3.79.65-.02,3.57,3.47,4.32,4.02.91.25,1.11-.4,1.17-1.16.38-4.53-.29-9.59-.01-14.18,0-.54.47-.74.95-.8,1.22-.14,3.78-.09,4.9.37s2.43,1.87,2.63,3.07Z" fill="var(--icon-subject-color)" />
    </g>
    <g id="field">
        <path
            d="M52.73,13.22c-.2-1.2-1.52-2.61-2.63-3.07s-3.68-.51-4.9-.37c-.49.06-.95.26-.95.8-.28,4.59.39,9.65.01,14.18-.06.76-.26,1.42-1.17,1.16-.74-.55-3.66-4.03-4.32-4.02-.44.01-3.24,3.3-3.94,3.79-.22.16-.42.32-.72.3-.34-.03-.68-.46-.67-.8-.3-4.56.43-9.69.01-14.18-.07-.75-.27-1.09-1.1-1.1H6.35c-1.56-.32-.4-1.82.23-2.54,1.19-1.37,3.37-2.54,5.18-2.7l44.92.06.65.81.07,53.83c-.06.64-.44,1.49-1.13,1.65-.42.09-2.6.11-3.03.03-.16-.03-.51-.25-.51-.36V13.22Z"
            fill="currentColor" />
    </g>
</svg>