<?xml version="1.0" encoding="UTF-8"?>
<svg id="Layer_2" xmlns="http://www.w3.org/2000/svg" viewBox="0 0 430 430">
    <g id="field">
        <path
            d="M212.1,169.91c4.47-1.77,5.49-8.49,1.01-10.79-3.76-1.93-6.55.12-10.37-.09-10.37-.55-18.73-9.06-20.51-19.04,5.17-4.5,17.88-26.87,2.53-24.43-4.59.73-4.18,5.51-6.02,8.98-5.99,11.3-17.09,18.09-30.06,17.25-5.44-.35-15.71-6.53-18.01.69-2.47,7.74,6.51,9.52,12.14,10.44,10.03,1.63,20.42,1.19,29.15-4.38,2.36,4.36,4.61,8.91,8.13,12.47,7.12,7.21,22.25,12.77,32,8.9Z"
            fill="var(--icon-field-color)" />
        <path
            d="M270.59,207.01c8.53-18.13,12.95-40.29-3.35-55.51-3.64-3.4-13.3-9.81-16.33-2.79-3.27,7.57,5.16,8.45,9.1,12.27,10.54,10.22,5.4,29.09.06,40.8-14.77-5.31-31.51-2.5-45.72,3.38-4.9,2.03-14.44,5.6-13.49,11.93,1.5,10.01,15.26.18,20.03-1.64,24.82-9.42,47.48-3.64,60.59,20.06,2.7,4.88,5.9,18.12,11.87,17.79,8.89-.49,4.58-11.05,2.63-15.8-4.93-11.99-14.41-23.68-25.39-30.5Z"
            fill="var(--icon-field-color)" />
        <path
            d="M331.15,164.45c-2.62.16-23.97,5.2-26.01,6.26-5.43,2.81-3.75,11.6,3.12,11.38,2.88-.09,24.29-5.14,26.61-6.41,6.22-3.4,2.52-11.62-3.72-11.23Z"
            fill="var(--icon-field-color)" />
        <path
            d="M215,0C96.26,0,0,96.26,0,215s96.26,215,215,215,215-96.26,215-215S333.74,0,215,0ZM366.97,229.52c8.7,44.47-33.35,60.69-68.56,69.08-.84.98.49,21.92-.12,25.76-.38,2.42-2.11,3.96-4.43,4.57-3.61.94-17.26.77-21.43.39-5.17-.47-6.34-3.6-9.2-7.3-6.31-8.18-20.56-33.43-28.66-36.59-5.26-2.06-10.74-2.74-16.24-5.51-5.43-2.73-12.32-10.03-17.86-9.94-3.85.06-8.71,1.97-12.77,2.29-25.83,2.06-54.61-5.43-63.3-32.55,16.01-7.73,36.21-19.43,35.99-39.82-.07-6.14-4.03-17.9-11.7-12.38-5.13,3.7-.91,7.44-.42,11.71,1.77,15.36-21.48,26.53-33.3,31.07-25.57,9.82-38.01,9.1-53.5-14.79-14.39-22.2-8.31-39.44,5.87-59.48,3.29,4.66,5.37,9.94,9.44,14.17,6.14,6.37,23.96,16.15,32.76,14.16,4.5-1.01,5.41-7.02,2.09-10.02-1.92-1.73-13.46-3.86-17.82-6.18-31.25-16.6-8.71-63.15,14.75-76.28,16.72-9.36,33.27-8.26,48.37,3.41,3.52,2.72,7.61,9.61,12.94,4.27,5.49-5.5-3.69-12.47-7.79-15.41-8.45-6.06-18.38-9.71-28.74-10.63l7.23-4.39c31.8-15.09,68.25-20.58,103.03-13.99,1.24.96.38.8.02,1.53-1.69,3.4-7.73,9.08-10.39,12.87-11.37,16.17-15.99,32.31-11.01,51.98,1.38,5.46,6.43,22.76,14.6,16.86,5.46-3.94-1.15-13.14-2.6-18.36-5.52-19.83,1.23-36.21,14.23-51,1.19-1.35,9.11-9.41,9.93-9.63,3.39-.92,25.64,10.08,29.96,12.51,3.79,2.13,24.96,15.79,25.63,18.65-2.19,13.64-11.4,23.59-23.37,29.61-4.11,2.07-9.6,1.67-8.74,8.42.85,6.72,7.15,4.68,11.42,3.25,14.16-4.73,27.11-18.2,30.57-32.81.22-.22,2.5,1.45,3.01,1.86,24.94,20.32,61,61.99,46.62,96.15-2.62,6.23-7.32,10.21-9.79,14.96-2.24,4.31,2.26,12.31,3.29,17.53Z"
            fill="var(--icon-field-color)" />
    </g>
    <g id="subject">
        <path
            d="M323.85,99.02c.22-.22,2.5,1.45,3.01,1.86,24.94,20.32,61,61.99,46.62,96.15-2.62,6.23-7.32,10.21-9.79,14.96-2.24,4.31,2.26,12.31,3.29,17.53,8.7,44.47-33.35,60.69-68.56,69.08-.84.98.49,21.92-.12,25.76-.38,2.42-2.11,3.96-4.43,4.57-3.61.94-17.26.77-21.43.39-5.17-.47-6.34-3.6-9.2-7.3-6.31-8.18-20.56-33.43-28.66-36.59-5.26-2.06-10.74-2.74-16.24-5.51s-12.32-10.03-17.86-9.94c-3.85.06-8.71,1.97-12.77,2.29-25.83,2.06-54.61-5.43-63.3-32.55,16.01-7.73,36.21-19.43,35.99-39.82-.07-6.14-4.03-17.9-11.7-12.38-5.13,3.7-.91,7.44-.42,11.71,1.77,15.36-21.48,26.53-33.3,31.07-25.57,9.82-38.01,9.1-53.5-14.79-14.39-22.2-8.31-39.44,5.87-59.48,3.29,4.66,5.37,9.94,9.44,14.17,6.14,6.37,23.96,16.15,32.76,14.16,4.5-1.01,5.41-7.02,2.09-10.02-1.92-1.73-13.46-3.86-17.82-6.18-31.25-16.6-8.71-63.15,14.75-76.28,16.72-9.36,33.27-8.26,48.37,3.41,3.52,2.72,7.61,9.61,12.94,4.27,5.49-5.5-3.69-12.47-7.79-15.41-8.45-6.06-18.38-9.71-28.74-10.63l7.23-4.39c31.8-15.09,68.25-20.58,103.03-13.99,1.24.96.38.8.02,1.53-1.69,3.4-7.73,9.08-10.39,12.87-11.37,16.17-15.99,32.31-11.01,51.98,1.38,5.46,6.43,22.76,14.6,16.86,5.46-3.94-1.15-13.14-2.6-18.36-5.52-19.83,1.23-36.21,14.23-51,1.19-1.35,9.11-9.41,9.93-9.63,3.39-.92,25.64,10.08,29.96,12.51,3.79,2.13,24.96,15.79,25.63,18.65-2.19,13.64-11.4,23.59-23.37,29.61-4.11,2.07-9.6,1.67-8.74,8.42s7.15,4.68,11.42,3.25c14.16-4.73,27.11-18.2,30.57-32.81ZM180.1,161.01c7.12,7.21,22.25,12.77,32,8.9,4.47-1.77,5.49-8.49,1.01-10.79-3.76-1.93-6.55.12-10.37-.09-10.37-.55-18.73-9.06-20.51-19.04,5.17-4.5,17.88-26.87,2.53-24.43-4.59.73-4.18,5.51-6.02,8.98-5.99,11.3-17.09,18.09-30.06,17.25-5.44-.35-15.71-6.53-18.01.69-2.47,7.74,6.51,9.52,12.14,10.44,10.03,1.63,20.42,1.19,29.15-4.38,2.36,4.36,4.61,8.91,8.13,12.47ZM270.59,207.01c8.53-18.13,12.95-40.29-3.35-55.5-3.64-3.4-13.3-9.81-16.33-2.79-3.27,7.57,5.16,8.45,9.1,12.27,10.54,10.22,5.4,29.09.06,40.8-14.77-5.31-31.51-2.5-45.72,3.38-4.9,2.03-14.44,5.6-13.49,11.93,1.5,10.01,15.26.18,20.03-1.64,24.82-9.42,47.48-3.64,60.59,20.06,2.7,4.88,5.9,18.12,11.87,17.79,8.89-.49,4.58-11.05,2.63-15.8-4.93-11.99-14.41-23.68-25.39-30.5ZM331.15,164.45c-2.62.16-23.97,5.2-26.01,6.26-5.43,2.81-3.75,11.6,3.12,11.38,2.88-.09,24.29-5.14,26.61-6.41,6.22-3.4,2.52-11.62-3.72-11.23Z" fill="var(--icon-subject-color)" />
    </g>
</svg>