<?xml version="1.0" encoding="UTF-8"?>
<svg id="Layer_2" xmlns="http://www.w3.org/2000/svg" viewBox="0 0 360 360">
    <g id="field">
        <path d="M187.58,202.31h34.13v-39.94c-11.02,3.42-22.45,6.46-34.13,6.66v33.29Z"
            fill="var(--icon-field-color)" />
        <path d="M138.28,202.31h34.13v-33.29c-11.75-.16-23.01-3.53-34.13-6.66v39.94Z" fill="var(--icon-field-color)" />
        <path d="M94.39,132.66v69.64h28.72v-46.86c-10.76-6.33-20.33-13.83-28.72-22.79Z"
            fill="var(--icon-field-color)" />
        <path d="M236.89,155.45v46.86h28.72v-69.64c-8.32,8.97-17.82,16.71-28.72,22.79Z"
            fill="var(--icon-field-color)" />
        <path
            d="M288.75,0H71.25C31.9,0,0,31.9,0,71.25v217.49c0,39.35,31.9,71.25,71.25,71.25h217.5c39.35,0,71.25-31.9,71.25-71.25V71.25c0-39.35-31.9-71.25-71.25-71.25ZM296.91,89.79c-.61,2.52-2.49,2.13-4.48,2.43-.55.08-.87-.18-.84.26h-.34v191.66c-.42.68-1.08,1.65-1.31,1.85-2.82,2.59-17.91,2.5-21.29.74-.99-.52-3.05-2.79-3.05-3.77v-57.61H94.39v58.12c0,.17-1.33,2.21-1.67,2.52-2.82,2.59-17.91,2.5-21.29.74-.99-.52-3.05-2.79-3.05-3.77v-57.61h0v-23.04h0v-68.62s0,0,0,0v-41.02h-.03c-.08-.88-2.19-.2-3.53-.94-.63-.35-1.58-1.73-1.75-2.45-.5-2.12-.42-11.33-.12-13.73.62-5.06,9-3.21,13.31-3.3,3.77-.08,6.48-.07,10.25,0,2.63.05,9.83-.51,11.66.25,2.79,1.16,2.41,11.06,2.17,13.81-.35,4.11-.88,6.37-5.95,5.9,9.07,27.14,32.23,47.8,61.43,54.85,46.34,11.19,94.8-10.57,109.73-54.15.25-1.04-.08-.59-.77-.69-1.99-.3-3.87.09-4.48-2.43-.52-2.14-.43-11.79-.13-14.24.17-1.43.75-3,2.46-3.31,2.72-.49,7.76.07,10.85.01,3.76-.07,6.5-.07,10.25,0,3.09.06,8.13-.5,10.85-.01,1.71.31,2.29,1.88,2.46,3.31.3,2.45.39,12.1-.13,14.24Z"
            fill="var(--icon-field-color)" />
    </g>
    <g id="subject">
        <path
            d="M297.04,75.55c-.17-1.43-.75-3-2.46-3.31-2.72-.49-7.76.07-10.85.01-3.75-.07-6.49-.07-10.25,0-3.09.06-8.13-.5-10.85-.01-1.71.31-2.29,1.88-2.46,3.31-.3,2.45-.39,12.1.13,14.24.61,2.52,2.49,2.13,4.48,2.43.69.1,1.01-.34.77.69-14.93,43.58-63.39,65.34-109.73,54.15-29.2-7.05-52.35-27.71-61.43-54.85,5.07.47,5.6-1.8,5.95-5.9.24-2.75.62-12.64-2.17-13.81-1.83-.76-9.03-.2-11.66-.25-3.77-.07-6.48-.08-10.25,0-4.31.09-12.68-1.76-13.31,3.3-.3,2.4-.38,11.61.12,13.73.17.71,1.11,2.09,1.75,2.45,1.33.74,3.45.07,3.53.94h.03v41.02s0,0,0,0v68.62h0v23.04h0v57.61c0,.99,2.06,3.25,3.05,3.77,3.38,1.76,18.47,1.85,21.29-.74.34-.31,1.67-2.35,1.67-2.52v-58.12h171.21v57.61c0,.99,2.06,3.25,3.05,3.77,3.38,1.76,18.47,1.85,21.29-.74.23-.21.89-1.18,1.31-1.85V92.48h.34c-.03-.44.29-.18.84-.26,1.99-.3,3.87.09,4.48-2.43.52-2.14.43-11.79.13-14.24ZM123.11,202.31h-28.72v-69.64c8.39,8.96,17.96,16.46,28.72,22.79v46.86ZM172.41,202.31h-34.13v-39.94c11.12,3.13,22.38,6.49,34.13,6.66v33.29ZM221.72,202.31h-34.13v-33.29c11.68-.2,23.12-3.24,34.13-6.66v39.94ZM265.6,202.31h-28.72v-46.86c10.89-6.07,20.4-13.82,28.72-22.79v69.64Z" fill="var(--icon-subject-color)" />
    </g>
</svg>