<?xml version="1.0" encoding="UTF-8"?>
<svg id="Layer_2" xmlns="http://www.w3.org/2000/svg" viewBox="0 0 377.83 313.05">
    <g id="field">
        <path
            d="M75.3,3.13v183.39c-21.98-6.22-46.74-.08-63.63,14.97V38.69c0-1.99,3.27-10.64,4.35-12.86C26.58,4.08,52.82-5.44,75.3,3.13Z" fill="var(--icon-field-color)" />
        <path
            d="M355.02,17.01H87.28v177.37c0,.6-2.61,3.61-3.36,4.12-4.54,3.06-13.71-1.61-19.56-2.15-77.84-7.19-88.94,107.87-11.91,116.7l34.84-.05v.05h268.19c12.35,0,22.36-10.01,22.36-22.36V39.82c0-12.6-10.21-22.81-22.81-22.81Z" fill="var(--icon-field-color)" />
    </g>
    <g id="subject">
        <path
            d="M363.13,266.6l-103.31-103.27-46.74-46.01-76.76-77.51c-2.91-2.78-7.11-2.58-7.86,1.87v37.8h19.46v7.49h-19.46v18.71h19.46v7.49h-18.34l-1.12,1.12v18.34h19.46v7.49h-19.46v18.34l1.12,1.12h18.34v7.49h-19.46v18.71h19.46v7.49h-19.46v18.34l1.12,1.12h18.34v7.49h-19.46v18.71h19.46v7.49h-18.34l-1.12,1.12v19.46c0,2.01,2.68,6.47,5.05,6.91l228.16.23c4.39-.27,4.14-4.95,1.48-7.53ZM280.23,237.99l-3.91.96c-32.93-2.17-69.34,2.78-101.86,0-6.78-.58-9.49-2.31-10.11-9.35l.18-105.42c1.13-2.59,2.84-2.24,4.71-.52l25.45,25.43,46.21,46.06,39.89,40.71-.57,2.14Z"
            fill="var(--icon-subject-color)" />
    </g>
    <g id="accent">
        <path
            d="M276.33,32.37l-76.7,132.83-6.07,10.84v33.31c0,.97,4.25,3.49,5.62,1.92l27.3-16.14,7.44-10.9,76.25-132.97c7.28-18.45-22.06-34.93-33.85-18.88Z"
            fill="var(--icon-accent-color)" />
    </g>
</svg>