<?xml version="1.0" encoding="UTF-8"?>
<svg id="Layer_2" xmlns="http://www.w3.org/2000/svg" viewBox="0 0 361.56 374.61">
    <g id="field">
        <path
            d="M175.37,146.61c48.03-6.15,53.18,63.76,10.96,68.73-48.55,5.71-53.19-63.32-10.96-68.73Z" fill="var(--icon-field-color)" />
        <path
            d="M210.73,357.92c-2.95,12.07-13.77,15.92-25.04,16.54-13.75.75-31.05-.68-34.84-16.54h59.88Z" fill="var(--icon-field-color)" />
        <path
            d="M227.95,324.17c1.32,10.73-4.24,19.45-15.31,20.28-21.36,1.61-44.89-1.12-66.47-.21-9.34-2.36-13.83-10.71-12.53-20.07h94.32Z" fill="var(--icon-field-color)" />
        <path
            d="M227.95,310.67h-94.32v-13.12c0-12.45-19.08-21.02-27.3-28.15-72.84-63.07-41.3-183.48,53.35-200.76,115.29-21.05,184.28,123.94,95.57,200.76-8.2,7.1-27.3,15.79-27.3,28.15v13.12ZM193.52,104.42h-25.45v16.88l-19.73,8.55-12.73-11.87c-4.35,5.41-13.28,11.4-16.99,16.8-.54.79-.93.81-.37,1.89,1.14,2.22,11.33,10.2,11.44,11.62l-8.4,19.89h-16.84v25.5h17.22c1.42,7.14,4.75,13.49,8.03,19.89l-11.8,12.74c0,1.23,15.83,17.23,17.02,17.55,2.49.66,10.57-10.16,13.31-11.71,6.32,3.35,12.73,6.71,19.85,8.04v18h25.45v-18c7.08-1.4,13.62-4.52,19.85-8.04,2.74,1.55,10.82,12.37,13.31,11.71,1.19-.31,17.02-16.32,17.02-17.55l-11.8-12.74c3.27-6.37,6.49-12.81,8.03-19.89h17.22v-25.5h-16.84l-8.4-19.89c.11-1.42,10.3-9.41,11.44-11.62.56-1.08.17-1.1-.37-1.89-3.71-5.4-12.64-11.39-16.99-16.8l-12.73,11.87-19.73-8.55v-16.88Z" fill="var(--icon-field-color)" />
    </g>
    <g id="subject">
        <polygon points="146.16 344.24 150.85 357.92 210.73 357.92 212.64 344.45 146.16 344.24"
        fill="var(--icon-subject-color)" />
        <rect x="133.63" y="310.67" width="94.32" height="13.5" fill="var(--icon-subject-color)" />
        <path
            d="M300.79,103.9l28.18-16.38c6.1-2.02,10.64,2.83,8.85,8.87-1.18,4-25.8,15.82-30.53,18.95-6.85.89-10.72-5.74-6.51-11.45Z"
            fill="var(--icon-subject-color)" />
        <path
            d="M5.43,174.34c3.69-.74,29.09-.8,32.61-.01,6.71,1.51,6.94,12.1-.63,13.3-9.52,1.51-22.8-.9-32.73-.12-6.5-2.31-6.19-11.77.76-13.17Z"
            fill="var(--icon-subject-color)" />
        <path
            d="M323.55,174.32c3.82-.86,27.7-.77,31.98-.11,8.21,1.26,7.63,12.33.75,13.41-5.04.79-27.08.8-32.1,0-7.57-1.21-7.35-11.79-.63-13.3Z"
            fill="var(--icon-subject-color)" />
        <path
            d="M27.88,87.32c1.99-.45,3.37-.21,5.26.42,3.24,1.08,22.57,12.47,25.6,14.85,6.97,5.48,3.86,13.21-4.45,12.75-4.76-3.33-28.65-14.56-30.29-18.44-1.45-3.44-.13-8.68,3.89-9.58Z"
            fill="var(--icon-subject-color)" />
        <path
            d="M91.5,23.57c3.22-.72,5.59.02,7.71,2.46,2.9,3.33,12.52,20.54,14.62,25.1,4.47,9.73-5.07,15.01-10.45,8.97-2.76-3.1-12.18-20.21-14.29-24.68-1.93-4.08-3.67-10.48,2.42-11.85Z"
            fill="var(--icon-subject-color)" />
        <path
            d="M265.91,23.57c6.22-1.41,9.62,2.91,8.09,8.87-.47,1.81-14.32,26.01-15.8,27.67-5.07,5.69-13.84.89-11.38-6.87,1.01-3.18,12.97-24.02,15.23-26.77,1.04-1.26,2.18-2.51,3.86-2.89Z"
            fill="var(--icon-subject-color)" />
        <path
            d="M178.33.33c5.21-1.19,8.58.87,9.22,6.19.68,5.67.8,25.31-.06,30.72-1.23,7.76-12.43,7.9-13.45-.69-.69-5.83-.79-25.1.06-30.72.35-2.28,1.86-4.97,4.23-5.51Z"
            fill="var(--icon-subject-color)" />
        <path
            d="M53.33,247.09c8.08-1.69,11.83,5.29,6.9,11.41l-27.63,15.81c-7.55,2.69-12.46-6.25-6.78-11.29,1.82-1.62,25.87-15.59,27.51-15.93Z"
            fill="var(--icon-subject-color)" />
        <path
            d="M303.33,247.08c2.09-.49,3.99-.26,6.01.41,2.31.77,24.09,13.46,26.03,15.16,1.3,1.13,2.33,2.41,2.58,4.19-1.26,19.97-27.72-5.8-36.61-8.35-3.51-3.25-2.89-10.29,1.99-11.42Z"
            fill="var(--icon-subject-color)" />
        <path
            d="M193.52,104.42v16.88l19.73,8.55,12.73-11.87c4.35,5.41,13.28,11.4,16.99,16.8.54.79.93.81.37,1.89-1.14,2.22-11.33,10.2-11.44,11.62l8.4,19.89h16.84v25.5h-17.22c-1.54,7.07-4.75,13.52-8.03,19.89l11.8,12.74c0,1.23-15.83,17.23-17.02,17.55-2.49.66-10.57-10.16-13.31-11.71-6.23,3.52-12.77,6.64-19.85,8.04v18h-25.45v-18c-7.11-1.33-13.53-4.69-19.85-8.04-2.74,1.55-10.82,12.37-13.31,11.71-1.19-.31-17.02-16.32-17.02-17.55l11.8-12.74c-3.28-6.4-6.61-12.75-8.03-19.89h-17.22v-25.5h16.84l8.4-19.89c-.11-1.42-10.3-9.41-11.44-11.62-.56-1.08-.17-1.1.37-1.89,3.71-5.4,12.64-11.39,16.99-16.8l12.73,11.87,19.73-8.55v-16.88h25.45ZM175.37,146.61c-42.23,5.41-37.6,74.43,10.96,68.73,42.23-4.96,37.07-74.88-10.96-68.73Z"
            fill="var(--icon-subject-color)" />
    </g>
</svg>