<?xml version="1.0" encoding="UTF-8"?>
<svg id="Layer_2" xmlns="http://www.w3.org/2000/svg" viewBox="0 0 498.39 589.48">
    <g id="subject">
        <path
            d="M447.29,99.3l.79-.73,13.49-3.74-2.43-14.65-13.53,1.08c-1.88.25-1.88-1.7-2.68-3.01-1.42-2.34-3.02-4.54-4.45-6.86l6.84-12.26-.33-.89-11.38-8.05-9.57,10.54c-.81.38-4.72-1.09-5.99-1.39-1.94-.46-5.43-.22-5.94-2.06l-3.34-13.16-14.65,2.43.81,13.98-.44.98-9.48,5.68-12.82-6.81-8.33,11.5.12.73,10.67,9.54c-1.45,3.53-1.94,7.34-2.76,10.95l-13.98,4.2,2.25,14.27,13.92-.76,4.32-4.68.95.03,30.92,22.23-3.09,6.11,3.77,13.42,14.23-2.47-.53-14.58,9.48-6.14,12.47,7.02.73-.12,8.2-11.59-10.58-9.94,2.32-10.8ZM398.73,109.36c-17.01-14.04,3.27-40.21,21.1-27.45,19.08,13.66-2.93,42.44-21.1,27.45Z"
            fill="var(--icon-subject-color)" />
        <path
            d="M397.83,183.64l18.48-5.33-3.07-18.66-19.23.94c-.86-1.88-1.73-3.79-2.8-5.56-1.43-2.38-3.33-4.53-4.65-6.87l9.28-16.29-15.36-11.01c-2.16,1.44-11.72,13.98-13.21,14.01-.5,0-6.04-1.99-7.43-2.29-2.1-.46-4.28-.58-6.39-.99l-5.09-18.37-18.65,3.11.92,19.21c-4.54,1.81-8.43,4.71-12.41,7.45l-16.25-8.93-11.2,15.23,14.02,12.4c-1.35,4.79-2.88,9.52-3.23,14.54l-18.31,4.97,3.09,18.68,19.06-1.06c1.81,4.62,4.85,8.53,7.62,12.57l-9.15,16.06.34.89,14.79,10.49,12.73-14.06c4.78,1.37,9.53,2.9,14.54,3.22l4.96,18.32,18.68-3.09-1.2-18.94c4.64-1.95,8.62-4.92,12.72-7.74l16.26,9.27,10.8-15.51-13.69-12.5c1.3-4.65,2.8-9.27,3.05-14.15ZM350.49,201.93c-27.81,1.77-31.87-42.84-1.48-44.38,27.88-1.41,31.94,42.44,1.48,44.38Z"
            fill="var(--icon-subject-color)" />
        <path
            d="M196.75,334.55H55.44c-9.73,0-17.62,7.89-17.62,17.62v188.09c0,9.73,7.89,17.62,17.62,17.62h141.32c9.73,0,17.62-7.89,17.62-17.62v-188.09c0-9.73-7.89-17.62-17.62-17.62ZM121.18,545.17c-14.52,0-25.47-11.5-25.47-26.3s10.96-26.3,25.47-26.3,25.2,11.51,25.2,26.3-10.68,26.3-25.2,26.3ZM139.8,477.51h-37.25c-5.48-36.98,34.24-52.32,34.24-72.04,0-10.96-7.4-16.16-17.26-16.16s-16.98,4.93-24.38,12.33l-23.28-21.37c13.15-14.79,31.5-25.2,52.87-25.2,29.86,0,52.59,14.24,52.59,47.39s-40.54,43.28-37.53,75.05Z"
            fill="var(--icon-subject-color)" />
    </g>
    <g id="field">
        <path
            d="M196.95,314.76c20.66,0,37.46,16.81,37.46,37.46v187.8c0,20.66-16.81,37.46-37.46,37.46H55.02c-20.66,0-37.47-16.81-37.47-37.46v-187.8c0-20.66,16.81-37.46,37.47-37.46h141.93M196.95,302.76H55.02c-27.32,0-49.47,22.15-49.47,49.46v187.8c0,27.32,22.15,49.46,49.47,49.46h141.93c27.32,0,49.46-22.15,49.46-49.46v-187.8c0-27.32-22.15-49.46-49.46-49.46h0Z"
            fill="var(--icon-field-color)" />
        <path d="M289.49,378.32l-43.07,18.12v74.69l60.86-67.82c11.2-12.48-2.33-31.48-17.79-24.98Z"
            fill="var(--icon-field-color)" />
        <path
            d="M398.73,109.36c-17.01-14.04,3.27-40.21,21.1-27.45,19.08,13.66-2.93,42.44-21.1,27.45Z"
            fill="var(--icon-field-color)" />
        <path
            d="M350.49,201.93c-27.81,1.77-31.87-42.84-1.48-44.38,27.88-1.41,31.94,42.44,1.48,44.38Z"
            fill="var(--icon-field-color)" />
        <path
            d="M443.37,0h-141.93c-27.32,0-49.46,22.15-49.46,49.46v187.8c0,27.32,22.15,49.46,49.46,49.46h141.93c27.32,0,49.46-22.15,49.46-49.46V49.46c0-27.32-22.15-49.46-49.46-49.46ZM408.47,210.29l-10.8,15.51-16.26-9.27c-4.1,2.82-8.09,5.8-12.72,7.74l1.2,18.94-18.68,3.09-4.96-18.32c-5.01-.32-9.76-1.85-14.54-3.22l-12.73,14.06-14.79-10.49-.34-.89,9.15-16.06c-2.77-4.04-5.81-7.95-7.62-12.57l-19.06,1.06-3.09-18.68,18.31-4.97c.35-5.02,1.88-9.75,3.23-14.54l-14.02-12.4,11.2-15.23,16.25,8.93c3.98-2.73,7.87-5.64,12.41-7.45l-.92-19.21,18.65-3.11,5.09,18.37c2.11.42,4.29.53,6.39.99,1.4.3,6.93,2.3,7.43,2.29,1.49-.02,11.05-12.56,13.21-14.01l15.36,11.01-9.28,16.29c1.32,2.33,3.22,4.49,4.65,6.87,1.07,1.77,1.94,3.68,2.8,5.56l19.23-.94,3.07,18.66-18.48,5.33c-.25,4.88-1.74,9.5-3.05,14.15l13.69,12.5ZM455.55,120.05l-8.2,11.59-.73.12-12.47-7.02-9.48,6.14.53,14.58-14.23,2.47-3.77-13.42,3.09-6.11-30.92-22.23-.95-.03-4.32,4.68-13.92.76-2.25-14.27,13.98-4.2c.82-3.61,1.31-7.42,2.76-10.95l-10.67-9.54-.12-.73,8.33-11.5,12.82,6.81,9.48-5.68.44-.98-.81-13.98,14.65-2.43,3.34,13.16c.51,1.83,4,1.6,5.94,2.06,1.27.3,5.18,1.77,5.99,1.39l9.57-10.54,11.38,8.05.33.89-6.84,12.26c1.43,2.33,3.02,4.53,4.45,6.86.79,1.3.8,3.26,2.68,3.01l13.53-1.08,2.43,14.65-13.49,3.74-.79.73-2.32,10.8,10.58,9.94Z"
            fill="var(--icon-field-color)" />
        <path d="M192.12,102.4l60.3,67.2v-74.3l-42.51-17.88c-15.46-6.5-28.99,12.5-17.79,24.98Z"
            fill="var(--icon-field-color)" />
        <path
            d="M118.42,1.59c-50.33-3.89-85.2,48.99-61.96,93.9,21.13,40.82,78.88,46.25,107.22,9.86,31.34-40.23,5.59-99.83-45.26-103.76Z"
            fill="var(--icon-field-color)" />
        <path
            d="M26.41,288.32h173.71c43.21-8.59,24.28-66.92,8.08-91.85C148.87,105.18,5.94,143.5.08,251.06c-.96,17.58,6.94,35.07,26.33,37.26Z"
            fill="var(--icon-field-color)" />
        <path
            d="M379.98,302.49c50.33-3.89,85.2,48.99,61.96,93.9-21.13,40.82-78.88,46.25-107.22,9.86-31.34-40.23-5.59-99.83,45.26-103.76Z"
            fill="var(--icon-field-color)" />
        <path
            d="M471.98,589.22h-173.71c-43.21-8.59-24.28-66.92-8.08-91.85,59.32-91.29,202.25-52.97,208.11,54.59.96,17.58-6.94,35.07-26.33,37.26Z"
            fill="var(--icon-field-color)" />
        <path
            d="M196.95,334.76c9.63,0,17.46,7.83,17.46,17.46v187.8c0,9.63-7.83,17.47-17.46,17.47H55.02c-9.63,0-17.46-7.83-17.46-17.47v-187.8c0-9.63,7.83-17.46,17.46-17.46h141.93M196.95,302.76H55.02c-27.32,0-49.46,22.15-49.46,49.46v187.8c0,27.32,22.15,49.47,49.46,49.47h141.93c27.32,0,49.46-22.15,49.46-49.47v-187.8c0-27.32-22.15-49.46-49.46-49.46h0Z"
            fill="var(--icon-field-color)" />
        <path
            d="M136.79,405.47c0-10.96-7.4-16.16-17.26-16.16s-16.98,4.93-24.38,12.33l-23.28-21.37c13.15-14.79,31.5-25.2,52.87-25.2,29.86,0,52.59,14.24,52.59,47.39s-40.54,43.28-37.53,75.05h-37.25c-5.48-36.98,34.24-52.32,34.24-72.04ZM95.7,518.87c0-14.79,10.96-26.3,25.47-26.3s25.2,11.51,25.2,26.3-10.68,26.3-25.2,26.3-25.47-11.5-25.47-26.3Z"
            fill="var(--icon-field-color)" />
    </g>
</svg>