<?xml version="1.0" encoding="UTF-8"?>
<svg id="Layer_2" xmlns="http://www.w3.org/2000/svg" viewBox="0 0 365.06 313.05">
    <g id="field">
        <path
            d="M133.49,274.05c-2.37-.44-5.05-4.9-5.05-6.91v-19.46l1.12-1.12h18.34v-7.49h-19.46v-18.71h19.46v-7.49h-18.34l-1.12-1.12v-18.34h19.46v-7.49h-19.46v-18.71h19.46v-7.49h-18.34l-1.12-1.12v-18.34h19.46v-7.49h-19.46v-18.34l1.12-1.12h18.34v-7.49h-19.46v-18.71h19.46v-7.49h-19.46v-20.36h-41.17v135.11c0,.6-2.61,3.61-3.36,4.12-4.54,3.06-13.71-1.61-19.56-2.15-77.84-7.19-88.94,107.87-11.91,116.7l262.43-.36c2.2-.68,5.2-4.58,5.2-6.78v-31.68l-186.58-.19Z" fill="var(--icon-field-color)" />
        <path
            d="M232.26,186.67l-5.77,8.46-27.3,16.14c-1.37,1.57-5.62-.95-5.62-1.92v-33.31l6.07-10.84,4.05-7.01-8.99-8.96-25.45-25.43c-1.87-1.72-3.58-2.07-4.71.52l-.18,105.42c.62,7.04,3.33,8.77,10.11,9.35,32.52,2.79,68.93-2.16,101.86,0l3.91-.96.57-2.14-39.89-40.71-8.64-8.61Z" fill="var(--icon-field-color)" />
        <path
            d="M311.41,59.27h-5.82l-54.71,95.41,8.94,8.8,60.26,60.23V67.93c0-4.78-3.88-8.66-8.66-8.66Z" fill="var(--icon-field-color)" />
        <polygon points="222.08 126.33 260.8 59.27 155.43 59.27 213.07 117.47 222.08 126.33" fill="var(--icon-field-color)" />
        <path
            d="M75.3,3.13v183.39c-21.98-6.22-46.74-.08-63.63,14.97V38.69c0-1.99,3.27-10.64,4.35-12.86C26.58,4.08,52.82-5.44,75.3,3.13Z" fill="var(--icon-field-color)" />
    </g>
    <g id="subject">
        <path
            d="M363.13,266.6l-103.31-103.27-8.89-8.75-17,29.64-1.61,2.36,8.58,8.55,39.89,40.71-.57,2.14-3.91.96c-32.93-2.17-69.34,2.78-101.86,0-6.78-.58-9.49-2.31-10.11-9.35l.18-105.42c1.13-2.59,2.84-2.24,4.71-.52l25.45,25.43,9.05,9.02,18.39-31.86-9.06-8.92-76.76-77.51c-2.91-2.78-7.11-2.58-7.86,1.87v37.8h19.46v7.49h-19.46v18.71h19.46v7.49h-18.34l-1.12,1.12v18.34h19.46v7.49h-19.46v18.34l1.12,1.12h18.34v7.49h-19.46v18.71h19.46v7.49h-19.46v18.34l1.12,1.12h18.34v7.49h-19.46v18.71h19.46v7.49h-18.34l-1.12,1.12v19.46c0,2.01,2.68,6.47,5.05,6.91l228.16.23c4.39-.27,4.14-4.95,1.48-7.53Z"
            fill="var(--icon-subject-color)" />
    </g>
    <g id="accent">
        <path
            d="M276.33,32.37l-76.7,132.83-6.07,10.84v33.31c0,.97,4.25,3.49,5.62,1.92l27.3-16.14,7.44-10.9,76.25-132.97c7.28-18.45-22.06-34.93-33.85-18.88Z"
            fill="var(--icon-accent-color)" />
    </g>
</svg>