<?xml version="1.0" encoding="UTF-8"?>
<svg id="Layer_2" xmlns="http://www.w3.org/2000/svg" viewBox="0 0 383.29 317.42">
    <g id="field">
        <path
            d="M346.27,52.39l-134.62-.12c-10.27-10.21-19.32-21.67-29.34-32.11-8.67-9.03-16.81-18.41-30.03-20.16L31.29.12C13.89,3.66,1.25,17.61,0,35.51l.05,246.77c1.88,16.86,14.13,30.33,30.64,33.8,106.94,1.9,214.39,1.62,321.35.14,16.6-3.2,28.5-16.2,31.25-32.81V85.42c-2.13-17.85-19.16-32.71-37.02-33.04ZM290.69,197.74c-1.39,14.54-13.97,25.78-28.71,20.42-2.2-.8-5.39-3.58-7.19-3.71-3.8-.27-4.57,3.41-4.47,6.46.33,10.9,2.61,22.49,3.12,33.44.2,4.33.79,7.49-4.44,7.99-12.02-.84-25.42,1.06-37.28,0-3.54-.32-7.42-3.22-7.9-6.86-.63-4.81,2.87-6.72,3.42-10.89,2.75-20.81-36.26-19.73-32.52.38.58,3.13,2.95,5.22,3.36,7.91.73,4.76-3.17,9.03-7.84,9.45-12.11,1.08-25.78-.86-38.06,0-2.59-.19-3.78-2.07-3.91-4.56.58-12.44,2.87-25.27,3.36-37.65.08-1.96-.15-4.89-2.56-5.23-3.72-.53-5.76,2.75-9.1,4.04-15.11,5.85-27.15-7.34-27.95-21.76-.89-15.99,11.13-31.09,28.16-25.51,2.29.75,5.77,3.66,7.39,3.89,4.03.56,4.93-3.18,4.83-6.42-.33-10.9-2.6-22.49-3.12-33.44-.2-4.27-.74-7.53,4.44-7.99,12.02.84,25.42-1.06,37.28,0,3.71.33,7.58,3.36,7.94,7.21.43,4.52-2.93,6.52-3.46,10.54-2.64,19.97,32.94,19.56,32.84,2.41-.03-4.65-1.87-5.49-3.19-8.86-2.09-5.36,1.82-10.8,7.35-11.29l39.11.11c2.04.87,2.72,2.29,2.86,4.44-.58,12.44-2.87,25.27-3.36,37.65-.08,1.96.15,4.89,2.56,5.23,3.72.53,5.76-2.75,9.1-4.04,14.12-5.46,26.54,6.29,27.93,20.03.17,1.7.16,4.9,0,6.61Z" fill="var(--icon-field-color)" />
    </g>
    <g id="subject">
        <path
            d="M290.94,197.74c-1.39,14.54-13.97,25.78-28.71,20.42-2.2-.8-5.39-3.58-7.19-3.71-3.8-.27-4.57,3.41-4.47,6.46.33,10.9,2.61,22.49,3.12,33.44.2,4.33.79,7.49-4.44,7.99-12.02-.84-25.42,1.06-37.28,0-3.54-.32-7.42-3.22-7.9-6.86-.63-4.81,2.87-6.72,3.42-10.89,2.75-20.81-36.26-19.73-32.52.38.58,3.13,2.95,5.22,3.36,7.91.73,4.76-3.17,9.03-7.84,9.45-12.11,1.08-25.78-.86-38.06,0-2.59-.19-3.78-2.07-3.91-4.56.58-12.44,2.87-25.27,3.36-37.65.08-1.96-.15-4.89-2.56-5.23-3.72-.53-5.76,2.75-9.1,4.04-15.11,5.85-27.15-7.34-27.95-21.76-.89-15.99,11.13-31.09,28.16-25.51,2.29.75,5.77,3.66,7.39,3.89,4.03.56,4.93-3.18,4.83-6.42-.33-10.9-2.6-22.49-3.12-33.44-.2-4.27-.74-7.53,4.44-7.99,12.02.84,25.42-1.06,37.28,0,3.71.33,7.58,3.36,7.94,7.21.43,4.52-2.93,6.52-3.46,10.54-2.64,19.97,32.94,19.56,32.84,2.41-.03-4.65-1.87-5.49-3.19-8.86-2.09-5.36,1.82-10.8,7.35-11.29l39.11.11c2.04.87,2.72,2.29,2.86,4.44-.58,12.44-2.87,25.27-3.36,37.65-.08,1.96.15,4.89,2.56,5.23,3.72.53,5.76-2.75,9.1-4.04,14.12-5.46,26.54,6.29,27.93,20.03.17,1.7.16,4.9,0,6.61Z"
            fill="currentColor" />
    </g>
</svg>