<?xml version="1.0" encoding="UTF-8"?>
<svg id="Layer_2" xmlns="http://www.w3.org/2000/svg" viewBox="0 0 383.29 317.42">
    <g id="field">
        <path
            d="M346.27,52.39l-134.62-.12c-10.27-10.21-19.32-21.67-29.34-32.11-8.67-9.03-16.81-18.41-30.03-20.16L31.29.12C13.89,3.66,1.25,17.61,0,35.51l.05,246.77c1.88,16.86,14.13,30.33,30.64,33.8,106.94,1.9,214.39,1.62,321.35.14,16.6-3.2,28.5-16.2,31.25-32.81V85.42c-2.13-17.85-19.16-32.71-37.02-33.04ZM267.76,224.54c-.89,4.43-9.3,4.26-13.1,5.1-17.9,3.96-34.32,9.6-50.48,18.24-2.79,1.49-13.49,8.54-15.57,8.35-2.09-.2-12.07-6.84-14.88-8.35-18.97-10.12-39.64-16.93-60.98-20.02-4.14-1.42-2.68-9.62-2.2-13.18,1.22-8.99,4.81-18.67,9.77-26.23l62.19,31.04c4.6,1.73,8.31,1.69,12.9,0l62.41-31.05c3.57,6.64,6.86,13.48,8.46,20.93.78,3.63,2.17,11.77,1.48,15.17ZM296.48,250.58c-.48,3.39-3.26,5.37-6.55,5.74-2.53.29-9.27.3-11.72-.11-3.05-.51-5.07-3.02-5.36-6.02-.51-5.3-.66-20.42.13-25.43.61-3.89,3.95-6.88,7.17-8.77v-48.54l-85.35,42.77c-4.8,1.99-5.78,2.46-10.79.45l-94.92-48c-3.66-3.74-3.76-9.49.25-12.99,32.66-16.77,65.48-33.77,98.75-49.19l2.46.17c33.08,16.04,66.39,32.21,98.68,49.7,2.28,2.78,2.85,5.93,1.59,9.34-.43,1.17-1.68,1.98-1.6,3.41v52.42c.25,1.26,2.03,1.66,2.96,2.52,2.01,1.87,3.79,4.37,4.22,7.16.69,4.44.7,20.89.07,25.37Z" fill="var(--icon-field-color)" />
    </g>
    <g id="subject">
        <path
            d="M280.14,167.45l-85.35,42.77c-4.8,1.99-5.78,2.46-10.79.45l-94.92-48c-3.66-3.74-3.76-9.49.25-12.99,32.66-16.77,65.48-33.77,98.75-49.19l2.46.17c33.08,16.04,66.39,32.21,98.68,49.7,2.28,2.78,2.85,5.93,1.59,9.34-.43,1.17-1.68,1.98-1.6,3.41v52.42c.25,1.26,2.03,1.66,2.96,2.52,2.01,1.87,3.79,4.37,4.22,7.16.69,4.44.7,20.89.07,25.37-.48,3.39-3.26,5.37-6.55,5.74-2.53.29-9.27.3-11.72-.11-3.05-.51-5.07-3.02-5.36-6.02-.51-5.3-.66-20.42.13-25.43.61-3.89,3.95-6.88,7.17-8.77v-48.54Z"
            fill="var(--icon-subject-color)" />
        <path
            d="M257.82,188.44c3.57,6.64,6.86,13.48,8.46,20.93.78,3.63,2.17,11.77,1.48,15.17-.89,4.43-9.3,4.26-13.1,5.1-17.9,3.96-34.32,9.6-50.48,18.24-2.79,1.49-13.49,8.54-15.57,8.35s-12.07-6.84-14.88-8.35c-18.97-10.12-39.64-16.93-60.98-20.02-4.14-1.42-2.68-9.62-2.2-13.18,1.22-8.99,4.81-18.67,9.77-26.23l62.19,31.04c4.6,1.73,8.31,1.69,12.9,0l62.41-31.05Z"
            fill="var(--icon-subject-color)" />
    </g>
</svg>