<?xml version="1.0" encoding="UTF-8"?>
<svg id="Layer_2" xmlns="http://www.w3.org/2000/svg" viewBox="0 0 317.84 318.43">
    <g id="Layer_1-2">
        <path
            d="M228.73,86.15c-7.42-1.01-29.24-.92-36.83-.06-13.66,1.54-13.45,20.94-.64,22.68,2.43.33,5.03-.4,7.38.41-13.56,14.89-30.5,27.88-39.03,46.56l-1.46-.43c-8.79-18.67-25.93-31.03-38.97-46.47,2.18-.19,4.6.26,6.74,0,13.69-1.66,14.36-21.61-1.39-22.78-8.76-.65-26.29-.93-34.79.03-5.16.58-9.51,4.44-10.22,9.66-.84,6.17-.94,33.03.25,38.72,2.11,10.07,17.08,11.64,21.33,2.1,1.69-3.78.62-7.46,1.41-11.37,13.18,14,28.92,25.82,37.37,43.59,13.16,27.66,5.58,60.55,7.85,90.22,2.57,12.36,20.78,11.87,22.47-.6,2.46-18.16-1.24-42.01.07-61.06,2.25-32.72,23.21-51.04,45.04-72.15.69,4.61-.41,9.07,2.48,13.15,5.99,8.47,19.4,4.84,20.58-5.69.74-6.64.94-32.08-.32-38.07-.89-4.22-5.06-7.85-9.32-8.43Z"
            fill="var(--icon-subject-color)" />
        <path
            d="M152.39.29c17.93-1.74,36.07,4.37,49.81,15.78l100,100.25c21.09,25.24,20.84,61.75-.67,86.71-29.8,34.59-69,65.55-99.71,99.83-25.29,20.95-61.55,20.79-86.55-.67-34.52-29.64-65.42-69.3-99.63-99.91-20.94-25.04-20.89-61.43.33-86.35L116.03,15.74C125.7,7.64,139.82,1.52,152.39.29ZM119.2,108.13c2.18-.19,4.6.26,6.74,0,13.69-1.66,14.36-21.61-1.39-22.78-8.76-.65-26.29-.93-34.79.03-5.16.58-9.51,4.44-10.22,9.66-.84,6.17-.94,33.03.25,38.72,2.11,10.07,17.08,11.64,21.33,2.1,1.69-3.78.62-7.46,1.41-11.37,13.18,14,28.92,25.82,37.37,43.59,13.16,27.66,5.58,60.55,7.85,90.22,2.57,12.36,20.78,11.87,22.47-.6,2.46-18.16-1.24-42.01.07-61.06,2.25-32.72,23.21-51.04,45.04-72.15.69,4.61-.41,9.07,2.48,13.15,5.99,8.47,19.4,4.84,20.58-5.69.74-6.64.94-32.08-.32-38.07-.89-4.22-5.06-7.85-9.32-8.43-7.42-1.01-29.24-.92-36.83-.06-13.66,1.54-13.45,20.94-.64,22.68,2.43.33,5.03-.4,7.38.41-13.56,14.89-30.5,27.88-39.03,46.56l-1.46-.43c-8.79-18.67-25.93-31.03-38.97-46.47Z"
            fill="var(--icon-field-color)" />
    </g>
</svg>