<?xml version="1.0" encoding="UTF-8"?><svg id="Layer_2" xmlns="http://www.w3.org/2000/svg" viewBox="0 0 1605.22 2363.85"><g id="ice-0"><path d="M1449.92,495.14l.61-1c-1.18.04-1.21.08-1.74-1,.51,2.77-56.38-.71-57,.2.22-.3-108.9-100.32-106.62-100.27-1.03-.9-217.03-103.53-218.43-104.5C1066.82,285.02,811.22,4.91,816.17,0c-.1-.35-198,311.83-200.13,314.82,0,0-37.23-70.73-37.23-70.73l.51-2.52-1.26,1.09-.72-1.37-.49,2.41-6.28,5.41-190.38,98.03-36.55,97.2c4.63-2.14-230.16,186.56-230.55,187.6,425.76-.54,996.5.17,1413.94,0l-77.1-136.8Z" fill="#c5dbff"/></g><g id="ice-1"><path d="M1595.79,995.85H35.55L0,874.85s122.68-238.81,122.68-238.82h-.14l1.45-1.18h1407.29l.56,1h.53c-1.8.86,63.9,358.85,63.42,360Z" fill="#6685c3"/></g><g id="ice-2"><polygon points="1605.22 1048.85 1450.52 1248.89 1441.27 1260.85 1391.61 1356.85 235.71 1356.85 102.94 1225.25 35.55 995.85 1595.79 995.85 1604.93 1047.22 1605.22 1048.85" fill="#3f65b0"/></g><g id="ice-3"><path d="M1391.61,1356.85l-52.33,101.15c-2.42,1.26-21.88,258-22.82,259.85H320.37l-11.53-9.89,1.26-1.48-1.48.32c-.37-2.18-63.88-340.75-64.11-342.61l-.5.89-8.3-8.23h1155.9Z" fill="#254b97"/></g><g id="ice-4"><path d="M1316.46,1717.85H320.37l144.25,123.75,79.99,310.25c0,.07,282.99,211.91,282.97,212h.03l62.76-131.83,210.24-154.17,132.94-293.86,82.66-63.14.25-3Z" fill="#203365"/></g></svg>