<?xml version="1.0" encoding="UTF-8"?><svg id="Layer_2" xmlns="http://www.w3.org/2000/svg" viewBox="0 0 1605.77 2360.85"><g id="ice-0"><path d="M1460.42,495.12s-58.91-1.56-58.17-1.81c.36-.12-106.71-100.27-106.71-100.27l-218.61-104.49S821.2,4.91,826.15,0c-.1-.35-198.16,311.82-200.3,314.81,0,0-38.01-72.16-38.01-72.16l-198.03,104.48-36.58,97.2c4.64-2.14-230.35,185.98-230.73,187.02,426.11-.54,991.22.17,1409,0l-71.08-136.23Z" fill="#c5dbff"/></g><g id="ice-1"><path d="M1596.5,992.35H35.5L0,872.01s122.5-240.67,122.5-240.67h1409s65.48,359.85,65,361Z" fill="#6685c3"/></g><g id="ice-2"><polygon points="1605.77 1045.1 1451.07 1245.14 1441.82 1257.1 1391.5 1352.35 235.5 1352.35 103.49 1221.5 35.5 992.35 1596.5 992.35 1605.48 1043.47 1605.77 1045.1" fill="#3f65b0"/></g><g id="ice-3"><path d="M1391.5,1352.35l-52.66,102.65c-2.42,1.26-21.4,257.5-22.34,259.35H319.5l-11.1-9.39-64.83-342.88-8.07-9.73h1156Z" fill="#254b97"/></g><g id="ice-4"><path d="M1316.5,1714.35H319.5l144.67,124.25,79.99,310.25c0,.07,282.99,211.91,282.97,212h.03l62.76-131.83,210.24-154.17,132.94-293.86,82.66-63.14.73-3.5Z" fill="#203365"/></g></svg>