<?xml version="1.0" encoding="UTF-8"?>
<svg id="Layer_2" xmlns="http://www.w3.org/2000/svg" viewBox="0 0 360.58 359.95">
    <g id="field">
        <path
            d="M169.57.31c144.75-8.3,240.51,150.21,163.97,274.22-70.35,113.98-236.22,113.81-306.62,0C-44.67,158.82,34.61,8.05,169.57.31ZM171.22,128.34l48.71-40.79-48.71-40.21v27.75c-84.42,5.39-129.39,106.69-77.27,173.65h1.52s23.15-18.88,23.15-18.88c-15.19-22.23-19.86-48.54-10.42-74.17,9.73-26.41,34.85-46.39,63.02-49.11v21.75ZM186.97,291.09c73.07-4.64,120.68-78.42,94.52-147.39-2.17-5.72-5.2-11.89-8.41-17.09-.9-1.45-5.36-8.87-6.59-8.43l-23.83,19.52c30.32,41.57,10.61,103.02-38.61,118.33-3.72,1.16-11.82,3.52-15.38,3.4-.92-.03-1.15-.27-1.69-.98v-26.62l-47.94,40.23,47.94,40.77v-21.75Z" fill="var(--icon-field-color)" />
    </g>
    <g id="subject">
        <path
            d="M186.97,291.09v21.75l-47.94-40.77,47.94-40.23v26.62c.53.71.77.95,1.69.98,3.57.12,11.67-2.25,15.38-3.4,49.22-15.32,68.92-76.76,38.61-118.33l23.83-19.52c1.24-.45,5.7,6.98,6.59,8.43,3.22,5.19,6.25,11.37,8.41,17.09,26.16,68.98-21.44,142.76-94.52,147.39Z"  fill="var(--icon-subject-color)"
             />
        <path
            d="M171.22,128.34v-21.75c-28.17,2.72-53.29,22.7-63.02,49.11-9.44,25.63-4.77,51.94,10.42,74.17l-23.15,18.87h-1.52c-52.12-66.95-7.15-168.26,77.27-173.65v-27.75l48.71,40.21-48.71,40.79Z"  fill="var(--icon-subject-color)"
             />
    </g>
</svg>