<?xml version="1.0" encoding="UTF-8"?>
<svg id="Layer_2" xmlns="http://www.w3.org/2000/svg" viewBox="0 0 353.53 353.47">
    <g id="subject-layer">
        <path
            d="M159.28,158.33V36.15l-1.09-1.09H52.74c-9,.64-17.82,8.48-17.82,17.82v105.45l1.09,1.09h122.18l1.09-1.09Z"
            fill="var(--icon-subject-color)" />
        <path
            d="M318.55,300.88v-105.45l-1.09-1.09h-122.18l-1.09,1.09v122.18l1.09,1.09h105.45c8.81,0,17.82-9.03,17.82-17.82Z"
            fill="var(--icon-subject-color)" />
        <path d="M299.46.17c-.07,0-.13,0-.2,0H54.21c-1.51,0-3,.08-4.48.2l249.73-.19Z" fill="var(--icon-subject-color)" />
        <path d="M.02,53.63c0,.25-.02.5-.02.75v122.36L.02,53.63Z" fill="var(--icon-subject-color)" />
        <path
            d="M46.44.2l259.41-.2c25.22,2.59,45.49,23.08,47.68,48.32v256.78c-2.21,25.51-22.9,46.16-48.36,48.36H48.38C22.87,351.26,2.22,330.57.02,305.11L.06,47.64C2.56,23.22,22,3.14,46.44.2ZM52.77,34.9c-9,.64-17.82,8.48-17.82,17.82v105.45l1.09,1.09h122.18l1.09-1.09V35.99l-1.09-1.09H52.77ZM195.32,194.17l-1.09,1.09v122.18l1.09,1.09h105.45c8.81,0,17.82-9.03,17.82-17.82v-105.45l-1.09-1.09h-122.18Z" fill="var(--icon-field-color)" />
    </g>
</svg>