<?xml version="1.0" encoding="UTF-8"?>
<svg id="Layer_2" xmlns="http://www.w3.org/2000/svg" viewBox="0 0 346.58 256.78">
    <g id="subject">
        <path
            d="M318.93,110.18l-140.46,70.39c-7.9,3.28-9.51,4.04-17.75.75L4.52,102.34c-6.02-6.15-6.18-15.62.42-21.38C58.68,53.35,112.7,25.38,167.45,0l4.05.28c54.44,26.39,109.26,53,162.39,81.79,3.75,4.57,4.69,9.76,2.62,15.36-.71,1.93-2.77,3.25-2.63,5.61v86.27c.41,2.08,3.34,2.73,4.87,4.14,3.31,3.07,6.24,7.2,6.95,11.79,1.13,7.31,1.16,34.38.11,41.75-.79,5.59-5.37,8.83-10.79,9.44-4.17.47-15.26.5-19.28-.18-5.02-.84-8.35-4.98-8.83-9.91-.84-8.72-1.08-33.6.22-41.86,1.01-6.41,6.5-11.33,11.8-14.43v-79.88Z" fill="var(--icon-field-color)" />
        <path
            d="M282.19,144.73c5.87,10.92,11.3,22.19,13.92,34.45,1.28,5.97,3.56,19.37,2.44,24.96-1.47,7.28-15.3,7.01-21.56,8.4-29.45,6.52-56.48,15.8-83.08,30.01-4.6,2.46-22.2,14.06-25.63,13.73s-19.86-11.26-24.49-13.74c-31.21-16.66-65.24-27.87-100.35-32.95-6.82-2.34-4.41-15.83-3.62-21.69,2-14.8,7.92-30.72,16.08-43.16l102.34,51.08c7.56,2.85,13.67,2.79,21.23.01l102.71-51.1Z" fill="var(--icon-field-color)" />
    </g>
    <g id="field">
        <path
            d="M55.9,144.74l6.75-13.01,98.08,49.6s4.77,2.02,8.08,2.12,9.67-2.87,9.67-2.87l97.47-48.85,6.25,13s-74.03,37.18-102.71,51.1c-3.25,1.58-7.58,2.12-10.67,2.1-6.22-.03-10.57-2.11-10.57-2.11l-102.34-51.08Z"
            fill="currentColor" />
    </g>
</svg>