<?xml version="1.0" encoding="UTF-8"?>
<svg id="Layer_2" xmlns="http://www.w3.org/2000/svg" viewBox="0 0 369.34 415.22">
    <g id="subject">
        <path
            d="M260.74,401.23H111.49c-3.35-1.56-5.56-4.03-6.02-7.86l-.34-70.91c-1.01-3.89-10.52-9.94-13.91-13.09-35.41-32.95-48.01-79.17-44.27-126.79,2.6-33.06,48.16-32.68,51.01-.71,1.77,19.78-2.25,34.55,4.48,54.77,25.12,75.41,132.2,80.65,164.92,8.12,10.37-22.99,5.87-37.39,7.58-60.67,2.63-35.82,48.57-33.63,51.06-2.25,4.06,51.35-10.24,95.59-48.02,130.54-3.12,2.88-10.64,6.97-11.65,10.85l-.34,70.91c-.07,3.4-3.04,5.13-5.27,7.11Z"
            fill="var(--icon-subject-color)" />
        <path
            d="M188.74,17.23c2.11,1.08,3.27,2.01,4.81,3.82,4.98,5.82,12.02,21.08,16.97,25.03,5.65,4.5,23.89,5.95,31.48,9.77,5.42,2.74,6.52,8.03,3.34,13.1-4.09,6.49-16.77,17.33-19.14,23.6-1.63,4.29.69,17.85.83,23.28.21,7.67,1.49,16.79-8.59,17.62l-31.62-11.92-31.64,11.82c-4.96.17-8.59-2.71-9.19-7.72-.95-7.83,1.36-19.59,1.57-27.76.24-9.31-13.99-20.32-19.11-28.2-3.14-4.84-3.94-10.43,2.03-13.59,8.38-4.43,22.84-4.85,31.66-9.59,8.31-8.69,12.16-22.32,22.12-29.26h4.5Z"
            fill="var(--icon-subject-color)" />
        <path
            d="M155.25,239.72c-38.2-37.85,15.62-98.39,57.5-64.62,47.23,38.08-15.01,106.71-57.5,64.62Z"
            fill="var(--icon-subject-color)" />
        <path
            d="M320.57,51.91c10.26-1.27,16.67,10.01,10.99,18.52l-48.7,48.8c-10.95,8.04-24.84-5.33-16.45-16.45,16.18-13.72,31.24-34.85,47.57-47.68,2.09-1.65,3.83-2.85,6.59-3.19Z"
            fill="var(--icon-subject-color)" />
        <path
            d="M52.06,51.89c4.06-.59,6.9.82,9.94,3.21,16.23,12.77,31.09,33.7,47.24,47.26,8.74,10.75-4.37,24.76-15.7,17.2l-48.8-48.7c-5.29-6.89-1.53-17.68,7.32-18.96Z"
            fill="var(--icon-subject-color)" />
    </g>
    <g id="field">
        <path
            d="M304.53,0H64.8C29.01,0,0,29.01,0,64.8v285.61c0,35.79,29.01,64.8,64.8,64.8h239.73c35.79,0,64.8-29.01,64.8-64.8V64.8c0-35.79-29.01-64.8-64.8-64.8ZM130.11,56.58c8.38-4.43,22.84-4.85,31.66-9.59,8.31-8.69,12.16-22.32,22.12-29.26h4.5c2.11,1.08,3.27,2.01,4.81,3.82,4.98,5.82,12.02,21.08,16.97,25.03,5.65,4.5,23.89,5.95,31.48,9.77,5.42,2.74,6.52,8.03,3.34,13.1-4.09,6.49-16.77,17.33-19.14,23.6-1.63,4.29.69,17.85.83,23.28.21,7.67,1.49,16.79-8.59,17.62l-31.62-11.92-31.64,11.82c-4.96.17-8.59-2.71-9.19-7.72-.95-7.83,1.36-19.59,1.57-27.76.24-9.31-13.99-20.32-19.11-28.2-3.14-4.84-3.94-10.43,2.03-13.59ZM154.9,240.22c-38.2-37.85,15.62-98.39,57.5-64.62,47.23,38.08-15.01,106.71-57.5,64.62ZM51.71,52.39c4.06-.59,6.9.82,9.94,3.21,16.23,12.77,31.09,33.7,47.24,47.26,8.74,10.75-4.37,24.76-15.7,17.2l-48.8-48.7c-5.29-6.89-1.53-17.68,7.32-18.96ZM277.65,312.87c-3.12,2.88-10.64,6.97-11.65,10.85l-.34,70.91c-.07,3.4-3.04,5.13-5.27,7.11H111.14c-3.35-1.56-5.56-4.03-6.02-7.86l-.34-70.91c-1.01-3.89-10.52-9.94-13.91-13.09-35.41-32.95-48.01-79.17-44.27-126.79,2.6-33.06,48.16-32.68,51.01-.71,1.77,19.78-2.25,34.55,4.48,54.77,25.12,75.41,132.2,80.65,164.92,8.12,10.37-22.99,5.87-37.39,7.58-60.67,2.63-35.82,48.57-33.63,51.06-2.25,4.06,51.35-10.24,95.59-48.02,130.54ZM331.21,70.93l-48.7,48.8c-10.95,8.04-24.84-5.33-16.45-16.45,16.18-13.72,31.24-34.85,47.57-47.68,2.09-1.65,3.83-2.85,6.59-3.19,10.26-1.27,16.67,10.01,10.99,18.52Z"
            fill="var(--icon-field-color)" />
    </g>
</svg>