<?xml version="1.0" encoding="UTF-8"?>
<svg id="Layer_2" xmlns="http://www.w3.org/2000/svg" viewBox="0 0 24 24">
    <g id="field">
        <path
            d="M12,2c5.51,0,10,4.49,10,10s-4.49,10-10,10S2,17.51,2,12,6.49,2,12,2M12,0C5.37,0,0,5.37,0,12s5.37,12,12,12,12-5.37,12-12S18.63,0,12,0h0Z" fill="var(--icon-field-color)" />
    </g>
    <g id="subject">
        <path
            d="M10.58,17.34s.03.04.07.04h5.61c.07,0,.12.02.17.07.05.05.07.11.07.18v1.61c0,.07-.02.13-.07.18-.05.05-.1.07-.17.07H7.8c-.07,0-.12-.02-.17-.07-.05-.05-.07-.11-.07-.18v-1.53c0-.13.04-.23.12-.32,1-1.14,2.15-2.55,3.47-4.22l.93-1.17c1.21-1.51,1.81-2.66,1.81-3.43,0-.58-.19-1.05-.57-1.42-.38-.37-.87-.55-1.48-.55s-1.09.18-1.47.55c-.37.37-.56.85-.56,1.46v.55c0,.07-.02.13-.07.18-.05.05-.1.07-.17.07h-1.83c-.07,0-.12-.02-.17-.07-.05-.05-.07-.11-.07-.18v-.91c.03-.76.23-1.43.61-1.99.38-.56.9-1,1.55-1.31.65-.31,1.38-.47,2.18-.47.88,0,1.65.18,2.3.53.66.35,1.16.84,1.52,1.45.35.61.53,1.3.53,2.07,0,1.16-.57,2.49-1.71,4-.63.85-1.67,2.12-3.11,3.81l-.75.89s-.04.06-.03.08Z" fill="var(--icon-subject-color)" />
    </g>
</svg>