<?xml version="1.0" encoding="UTF-8"?>
<svg id="Layer_2" xmlns="http://www.w3.org/2000/svg" viewBox="0 0 24 24">
    <g id="field">
        <path
            d="M12,2c5.51,0,10,4.49,10,10s-4.49,10-10,10S2,17.51,2,12,6.49,2,12,2M12,0C5.37,0,0,5.37,0,12s5.37,12,12,12,12-5.37,12-12S18.63,0,12,0h0Z" fill="var(--icon-field-color)" />
    </g>
    <g id="subject">
        <path
            d="M15.93,13.31s.07.1.07.17v1.6c0,.07-.02.12-.07.17-.05.05-.1.07-.17.07h-.85c-.07,0-.1.03-.1.1v3.34c0,.07-.02.12-.07.17-.05.05-.1.07-.17.07h-1.85c-.07,0-.12-.02-.17-.07-.05-.05-.07-.1-.07-.17v-3.34c0-.07-.03-.1-.1-.1h-6.13c-.07,0-.12-.02-.17-.07-.05-.05-.07-.1-.07-.17v-1.28c0-.08.02-.18.06-.3l3.81-8.32c.05-.12.15-.18.28-.18h1.98c.09,0,.16.02.19.07.03.05.03.12-.01.21l-3.59,7.84s-.01.05,0,.08c.01.03.03.04.06.04h3.59c.07,0,.1-.03.1-.1v-2.72c0-.07.02-.12.07-.17.05-.05.1-.07.17-.07h1.85c.07,0,.12.02.17.07.05.05.07.1.07.17v2.72c0,.07.03.1.1.1h.85c.07,0,.12.02.17.07Z" fill="var(--icon-subject-color)" />
    </g>
</svg>