<?xml version="1.0" encoding="UTF-8"?>
<svg id="Layer_2" xmlns="http://www.w3.org/2000/svg" viewBox="0 0 24 24">
    <g id="field">
        <path
            d="M12,2c5.51,0,10,4.49,10,10s-4.49,10-10,10S2,17.51,2,12,6.49,2,12,2M12,0C5.37,0,0,5.37,0,12s5.37,12,12,12,12-5.37,12-12S18.63,0,12,0h0Z"  fill="var(--icon-field-color)" />
    </g>
    <g id="subject">
        <path
            d="M11.29,4h2.41c.08,0,.15.03.21.08.06.05.09.12.09.19v15.45c0,.08-.03.14-.09.19-.06.05-.13.08-.21.08h-2.31c-.08,0-.15-.03-.21-.08-.06-.05-.09-.12-.09-.19V6.74s-.02-.06-.05-.08c-.03-.02-.07-.03-.1-.01l-2.51.71s-.08.02-.13.02c-.07,0-.12-.02-.16-.07-.04-.05-.06-.11-.06-.18l-.08-1.51c0-.15.07-.26.2-.32l2.71-1.23c.13-.05.26-.07.38-.07Z" fill="var(--icon-subject-color)" />
    </g>
</svg>