<?xml version="1.0" encoding="UTF-8"?>
<svg id="Layer_2" xmlns="http://www.w3.org/2000/svg" viewBox="0 0 24 24">
    <g id="field">
        <path
            d="M12,2c5.51,0,10,4.49,10,10s-4.49,10-10,10S2,17.51,2,12,6.49,2,12,2M12,0C5.37,0,0,5.37,0,12s5.37,12,12,12,12-5.37,12-12S18.63,0,12,0h0Z" fill="var(--icon-field-color)" />
    </g>
    <g id="subject">
        <path
            d="M16.5,14.61c0,.79-.12,1.49-.35,2.1-.31.89-.83,1.58-1.55,2.07-.72.49-1.59.73-2.61.73s-1.88-.26-2.62-.79c-.74-.53-1.27-1.25-1.58-2.15-.16-.44-.26-1.01-.29-1.72,0-.17.08-.25.24-.25h1.9c.16,0,.24.08.24.25.03.45.1.81.2,1.08.12.45.35.81.68,1.07.33.26.74.39,1.21.39.9,0,1.52-.42,1.86-1.27.18-.41.27-.94.27-1.59,0-.72-.1-1.31-.31-1.78-.35-.79-.97-1.19-1.84-1.19-.23,0-.54.14-.94.42-.05.03-.1.04-.14.04-.07,0-.14-.04-.2-.13l-.94-1.36c-.04-.07-.06-.13-.06-.17,0-.07.03-.13.08-.19l3.37-3.43s.03-.06.02-.08c-.01-.03-.04-.04-.08-.04h-5.1c-.07,0-.13-.02-.17-.07-.05-.05-.07-.11-.07-.18v-1.61c0-.07.02-.13.07-.18.05-.05.11-.07.17-.07h8.14c.07,0,.13.02.17.07.05.05.07.11.07.18v1.84c0,.13-.04.23-.12.32l-2.92,3.05c-.05.06-.03.1.08.13,1.27.18,2.16.91,2.69,2.18.27.68.41,1.45.41,2.33Z" fill="var(--icon-subject-color)" />
    </g>
</svg>