<?xml version="1.0" encoding="UTF-8"?><svg id="Layer_2" xmlns="http://www.w3.org/2000/svg" viewBox="0 0 109.07 109.07"><g id="subject"><path d="M50.74,20.04h10.07c.35,0,.65.12.89.36.24.24.37.52.37.86v68.57c0,.34-.12.63-.37.86-.25.24-.54.36-.89.36h-9.65c-.35,0-.65-.12-.89-.36-.25-.24-.37-.52-.37-.86v-57.61c0-.13-.07-.25-.21-.36-.14-.1-.28-.12-.42-.05l-10.49,3.14c-.14.07-.32.1-.52.1-.28,0-.51-.1-.68-.3-.18-.2-.26-.47-.26-.81l-.32-6.69c0-.68.28-1.15.84-1.42l11.33-5.48c.56-.2,1.08-.3,1.57-.3Z"/></g><g id="field"><circle cx="54.54" cy="54.54" r="50" fill="none" stroke="#000" stroke-miterlimit="10" stroke-width="9.07"/></g></svg>