<?xml version="1.0" encoding="UTF-8"?>
<svg id="Layer_2" xmlns="http://www.w3.org/2000/svg" viewBox="0 0 96 96">
    <g id="field">
        <path
            d="M0,0v96h96V0H0ZM14.2,25.74c2.3-2.72,5.16-2.15,8.33-2.34,9.89-.61,19.84-1.08,29.76-1.46,1.86-.07,3.73.07,5.59-.16-1.57-3.44.83-7.87,4.61-8.25,2.35-.24,3.32.42,5.14,1.65,4.62,3.11,9.03,6.81,13.62,9.99,2.78,2.47,2.66,6.84-.17,9.22-4.58,3.12-8.85,6.75-13.45,9.84-.53.36-1.21.88-1.77,1.14-5.01,2.29-10.08-2.73-7.99-7.74-1.81-.22-3.61-.08-5.42-.16-8.83-.35-17.69-.81-26.52-1.3-2.54-.14-5.38-.02-7.88-.37-4.76-.66-7-6.34-3.85-10.07ZM81.08,70.95c-4.55,3.11-8.89,6.78-13.45,9.84-.53.36-1.21.88-1.77,1.14-5.04,2.3-10.06-2.73-7.99-7.74-1.86-.22-3.72-.08-5.59-.16-8.77-.34-17.6-.82-26.36-1.3-4.71-.26-12.67.81-13.18-5.91-.58-7.78,8.12-6.76,13.18-7.04,8.81-.48,17.69-.95,26.52-1.3,1.81-.07,3.62.06,5.42-.16-2.08-5.02,2.96-10.04,7.99-7.74.56.26,1.24.78,1.77,1.14,4.62,3.11,9.03,6.82,13.62,9.99,2.77,2.61,2.69,6.73-.17,9.22Z"
             fill="var(--icon-field-color)" />
    </g>
    <g id="subject">
        <path
            d="M57.87,37.64c-1.81-.22-3.61-.08-5.42-.16-8.83-.35-17.69-.81-26.52-1.3-2.54-.14-5.38-.02-7.88-.37-4.76-.66-7-6.34-3.85-10.07,2.3-2.72,5.16-2.15,8.33-2.34,9.89-.61,19.84-1.08,29.76-1.46,1.86-.07,3.73.07,5.59-.16-1.57-3.44.83-7.87,4.61-8.25,2.35-.24,3.32.42,5.14,1.65,4.62,3.11,9.03,6.81,13.62,9.99,2.78,2.47,2.66,6.84-.17,9.22-4.58,3.12-8.85,6.75-13.45,9.84-.53.36-1.21.88-1.77,1.14-5.01,2.29-10.08-2.73-7.99-7.74Z" fill="var(--icon-subject-color)" />
        <path
            d="M57.87,74.19c-1.86-.22-3.72-.08-5.59-.16-8.77-.34-17.6-.82-26.36-1.3-4.71-.26-12.67.81-13.18-5.91-.58-7.78,8.12-6.76,13.18-7.04,8.81-.48,17.69-.95,26.52-1.3,1.81-.07,3.62.06,5.42-.16-2.08-5.02,2.96-10.04,7.99-7.74.56.26,1.24.78,1.77,1.14,4.62,3.11,9.03,6.82,13.62,9.99,2.77,2.61,2.69,6.73-.17,9.22-4.55,3.11-8.89,6.78-13.45,9.84-.53.36-1.21.88-1.77,1.14-5.04,2.3-10.06-2.73-7.99-7.74Z" fill="var(--icon-subject-color)" />
    </g>
</svg>