<?xml version="1.0" encoding="UTF-8"?>
<svg id="Layer_2" xmlns="http://www.w3.org/2000/svg" viewBox="0 0 384 384">
    <g id="Layer_1-2">
        <path
            d="M204.07,0l19.65,2.47c82.05,13.43,147.89,81.18,158.67,163.76.59,4.51.46,9.45,1.61,13.77v24c-1.16,4.32-1.01,9.26-1.61,13.77-10.96,82.68-76.47,150.23-158.67,163.76l-19.65,2.47h-23.99c-4.32-1.16-9.26-1.01-13.76-1.61C81.63,371.16,12.84,302.59,1.75,217.77c-.59-4.51-.46-9.45-1.61-13.77.34-7.93-.46-16.09,0-24C5.72,84.77,84.89,5.57,180.08,0h23.99ZM251.87,87.2c-3.22.42-8.05,2.37-10.69,4.3l-25.1,25.12,51.34,51.36c11.6-14.45,37.11-26.46,27.51-48.51-2.17-4.99-20.37-23.38-25.28-27.21-5.13-4-11.3-5.92-17.78-5.07ZM200.12,126.93c-18.77,7.77-43.1,10.86-61.27,18.95-5.27,2.35-9.52,6.56-12.62,11.37l-37.99,112.75c-1.53,4.29-1.91,8.51,1.51,12l60.71-59.98c-6.67-17.6,7.24-35.14,26.05-31.33,24.23,4.91,22.71,41.35-2.25,44.61-5.42.71-8.76-1.95-13.34-.59l-58.46,58.52c-1.5,2.93,7.57,4.62,9.44,3.43l111.87-37.34c11.26-4.9,13.58-11.7,17.25-22.5,4.79-14.09,13.55-38.42,15.95-52.29.53-3.06.94-5.97-1.51-8.3l-48-47.99c-2.01-1.88-4.79-1.72-7.32-1.32Z" fill="var(--icon-field-color)" />
        <path
            d="M200.12,126.93c2.53-.4,5.3-.57,7.32,1.32l48,47.99c2.46,2.33,2.04,5.24,1.51,8.3-2.39,13.87-11.16,38.2-15.95,52.29-3.67,10.8-5.98,17.59-17.25,22.5l-111.87,37.34c-1.87,1.19-10.94-.5-9.44-3.43l58.46-58.52c4.59-1.36,7.92,1.3,13.34.59,24.96-3.26,26.48-39.7,2.25-44.61-18.81-3.81-32.73,13.73-26.05,31.33l-60.71,59.98c-3.42-3.48-3.04-7.71-1.51-12l37.99-112.75c3.1-4.82,7.36-9.03,12.62-11.37,18.17-8.1,42.5-11.18,61.27-18.95Z"
            fill="currentColor" />
        <path
            d="M251.87,87.2c6.49-.85,12.65,1.07,17.78,5.07,4.91,3.83,23.1,22.23,25.28,27.21,9.6,22.04-15.91,34.05-27.51,48.51l-51.34-51.36,25.1-25.12c2.63-1.94,7.46-3.88,10.69-4.3Z"
            fill="currentColor" />
    </g>
</svg>