<?xml version="1.0" encoding="UTF-8"?>
<svg id="Layer_2" xmlns="http://www.w3.org/2000/svg" viewBox="0 0 408.69 408.74">
    <g id="field">
        <path
            d="M319.74,241.87c-7.95.47-15.67,2.72-23.52,3.61l-33.39-33.37-50.97,50.76-54.61-54.96,50.56-50.81-44.2-44.18-.57-1.45C183.11,52.03,134.35-8.34,71.71.95c-5.46.81-12.41,1.79-15.79,6.57-3.34,4.73-3.08,8.95-.15,13.73,11.01,17.99,58.99,41.67,33.67,67.71-24.31,24.99-50.45-19.97-67.02-32.75-8.95-6.9-17.08-1.27-19.74,8.24-1.25,4.48-2.32,11.73-2.63,16.13-.17,2.36.12,4.81,0,7.19l3.6,19.96c8.69,28.74,34.05,53.07,64.09,58.05,15.31,2.54,29.82.28,44.84-2.58l133.25,134.1c-4.86,18.74-6.12,39.16.85,57.57,9.19,24.29,30.89,44.3,56.07,50.91,5.21,1.37,10.57,1.76,15.79,2.97h11.97l15.18-2.78c8.72-2.14,12.47-11.62,7.17-19.18-12-17.14-58.48-41.94-33.25-67.18,24.5-24.5,50.73,20.5,67.6,33.61,14.76,6.75,18.9-4.57,20.62-16.83,7.44-53.09-35-97.62-88.1-94.51Z" fill="var(--icon-field-color)" />
    </g>
    <g id="subject">
        <path
            d="M302.92,171.94l-53.65-54.92-1.71.4-39.51,39.7,54.9,54.88-51.08,50.88-54.49-54.83-119.65,120.25c-.23.33-.43.65-.65.98l-18.03,18.12c-25.15,36.26,18.42,79.21,54.43,53.58l210.76-209.93-.24-.25,18.92-18.85Z"
            fill="var(--icon-subject-color)" />
        <path
            d="M397.62,13.06l-61.76,61.29c-16.16-2.58-24.44,18.73-10.08,27.14,7.6,4.45,18.98.22,21.19-8.36.8-3.11-.36-6.28,1.2-9.02l60.5-59.99-41.55,119.82c-9.4,14.53-37.2,16.63-52.11,23.77l-2.53-.06-58.67-58.97c7.99-18.75,8.45-48.2,29.7-56.87l114.1-38.75Z"
            fill="var(--icon-subject-color)" />
    </g>
    <g id="accent">
        <polygon points="207.93 156.99 157.25 207.92 211.87 262.88 262.95 212 207.93 156.99"
            fill="var(--icon-accent-color)" />
    </g>
</svg>