<?xml version="1.0" encoding="UTF-8"?>
<svg id="Layer_2" xmlns="http://www.w3.org/2000/svg" viewBox="0 0 459.95 458.35">
    <g id="subject">
        <path
            d="M289.24,353.15l-23.57-65.8c-2.96-6.59-5.12-9.2-12.33-11.02-15.78-3.99-35.44-3.94-50.73-8.55-6.74-2.03-9.15-5.83-11.02-12.34-5.66-19.7-6.54-45.39-13.26-63.98-.76-2.09-1.93-4.38-3.49-5.94-2.4-2.39-5.49-3.41-8.65-4.37-12.26-3.75-28.29-7.12-42.27-9.91l-32.2-6.88-39.49,121.15,116.3,122.21,125.55-41.11-4.83-13.46h0Z"
            fill="currentColor" />
    </g>
    <g id="field">
        <path
            d="M455.88,184.27L273.08,4.18c-5.23-5.02-13.54-5.52-19.49-1.51L91.75,164.21l-.05.14,32.2,6.88c13.99,2.79,30.02,6.16,42.27,9.91,3.16.96,6.25,1.98,8.65,4.37,1.56,1.56,2.74,3.85,3.49,5.94,6.73,18.59,7.61,44.29,13.26,63.98,1.87,6.51,4.28,10.31,11.02,12.34,15.29,4.61,34.95,4.57,50.73,8.55,7.22,1.82,9.37,4.43,12.33,11.02l23.57,65.8h0s4.83,13.46,4.83,13.46l162.72-162.53c4.9-5.92,3.73-14.08-.9-19.81Z" fill="var(--icon-field-color)" />
        <path
            d="M156.78,395.39h-.01s-26.31-27.66-26.31-27.66l-78.25-82.23L0,445.68v5.39c3.79,6.66,6.65,8.24,14.42,6.78l154.1-50.13-11.74-12.33Z" fill="var(--icon-field-color)" />
    </g>
</svg>