<?xml version="1.0" encoding="UTF-8"?>
<svg id="Layer_2" xmlns="http://www.w3.org/2000/svg" viewBox="0 0 301.56 301.56">
    <g id="field">
        <path
            d="M159.55,0c3.56.98,7.71.78,11.41,1.25,66.17,8.55,120.82,63.01,129.24,129.29.47,3.7.28,7.85,1.25,11.41-.24,5.85.33,11.84,0,17.67-7.29,128.73-165.39,189.64-257.25,98.01C-47.8,165.86,13.02,7.3,141.88,0h17.66ZM115.86,85.53c-4.89.49-8.86,4.73-9.3,9.59l-.02,110.17c.73,8.23,8.14,12.62,15.73,9.21,29.62-18.92,62.78-34.32,92.23-53.23,3.42-2.2,6.3-3.72,7.21-8.1,1.28-6.16-1.57-9.84-6.62-12.88-30.87-15.37-60.85-37.76-91.64-52.64-2.5-1.21-4.62-2.42-7.58-2.13Z" fill="var(--icon-field-color)" />
    </g>
    <g id="subject">
        <path
            d="M115.86,85.53c2.96-.29,5.08.92,7.58,2.13,30.79,14.87,60.77,37.27,91.64,52.64,5.05,3.04,7.91,6.72,6.62,12.88-.91,4.38-3.79,5.9-7.21,8.1-29.44,18.91-62.61,34.3-92.23,53.23-7.59,3.41-15-.98-15.73-9.21l.02-110.17c.44-4.86,4.41-9.1,9.3-9.59Z"
            fill="var(--icon-subject-color)" />
    </g>
</svg>