<?xml version="1.0" encoding="UTF-8"?>
<svg id="Layer_2" xmlns="http://www.w3.org/2000/svg" viewBox="0 0 58.08 110.53">
    <g id="field">
        <path
            d="M32.42,0h-6.76C11.49,0,0,11.49,0,25.66v59.21c0,14.17,11.49,25.66,25.66,25.66h6.76c14.17,0,25.66-11.49,25.66-25.66V25.66C58.08,11.49,46.59,0,32.42,0ZM27.17,80.72c-3.89,0-6.26-2.74-6.26-6.55s2.38-6.7,6.26-6.7,6.27,2.81,6.27,6.7-2.38,6.55-6.27,6.55ZM36.46,55.01c-3.31,1.51-5.4,2.45-5.4,5.98,0,2.45-2.16,4.03-4.68,4.03s-4.75-1.3-4.75-4.61.36-6.62,7.34-10.37c3.89-2.09,6.48-3.31,6.48-6.62,0-1.87-1.8-3.89-6.26-3.89-3.82,0-7.63,1.08-7.63,5.54,0,2.38-1.8,3.6-3.82,3.6-2.38,0-4.75-1.8-4.75-5.54,0-8.57,7.35-13.32,16.56-13.32,10.58,0,15.55,6.05,15.55,13.18s-4.03,9.86-8.64,12.02Z"
            fill="var(--icon-field-color)" />
    </g>
    <g id="subject">
        <path
            d="M21.62,60.41c0-3.17.36-6.62,7.34-10.37,3.89-2.09,6.48-3.31,6.48-6.62,0-1.87-1.8-3.89-6.26-3.89-3.82,0-7.63,1.08-7.63,5.54,0,2.38-1.8,3.6-3.82,3.6-2.38,0-4.75-1.8-4.75-5.54,0-8.57,7.35-13.32,16.56-13.32,10.58,0,15.55,6.05,15.55,13.18s-4.03,9.86-8.64,12.02c-3.31,1.51-5.4,2.45-5.4,5.98,0,2.45-2.16,4.03-4.68,4.03s-4.75-1.3-4.75-4.61ZM20.9,74.17c0-3.89,2.38-6.7,6.26-6.7s6.27,2.81,6.27,6.7-2.38,6.55-6.27,6.55-6.26-2.74-6.26-6.55Z"
            fill="var(--icon-subject-color)" />
    </g>
</svg>