<?xml version="1.0" encoding="UTF-8"?>
<svg id="Layer_2" xmlns="http://www.w3.org/2000/svg" viewBox="0 0 71.02 47.58">
    <g id="Layer_1-2">
        <path
            d="M52.09,21.49c.86.79,2.78-.08,3.84-.23,17.04-2.46,20.88,20.16,5.14,25.29-16.34,5.32-23.34-12.61-21.27-25.8,1.59-10.12,11.17-17.4,20.54-20.07,1.86-.53,5.13-1.77,5,1.35-.04.92-.16,2.45-.3,3.36-.3,1.93-1.63,1.58-3.14,2.11-3.61,1.28-6.85,4.34-8.71,7.65-.75,1.34-2.44,5.09-1.1,6.33Z"  fill="var(--icon-subject-color)" />
        <path
            d="M25.41.41c.29.29.5.93.5,1.34,0,.88-.18,2.75-.32,3.64-.32,2.03-2.06,1.69-3.67,2.31-4.08,1.58-9.19,7.03-9.71,11.47s3.3,2.01,5.87,1.93c15.67-.51,18.4,19.49,4.6,25.05C5.82,52.94-1.86,34.17.38,20.49,2.02,10.5,11.69,3.32,20.9.69c1.16-.33,3.59-1.2,4.51-.28Z" fill="var(--icon-subject-color)" />
    </g>
</svg>