<?xml version="1.0" encoding="UTF-8"?>
<svg id="Layer_2" xmlns="http://www.w3.org/2000/svg" viewBox="0 0 355.23 369.81">
    <g id="subject">
        <path
            d="M300.35,99.43c-7.25-.99-16.62.61-24.09.05-2.76.61-4.66,3.12-4.41,5.97l11.81,57.83c2.56,3.46,7.03,3.6,9.58,0l11.71-57.21c.67-3.06-1.49-6.21-4.6-6.63Z"
            fill="var(--icon-subject-color)" />
        <path d="M286.99,171.57c-13.72,1.62-12.17,22.97,2.32,22.07,14.45-.9,12.97-23.87-2.32-22.07Z"
        fill="var(--icon-subject-color)" />
        <path
            d="M224.24,94.95l51.3-23.35c-8.21-6.39-17.04-12-26.39-16.75l-69,38.52c-4.41,2.46-9.83-.77-9.75-5.82l.18-12.38c-4.53.05-9.06.29-13.57.81-50.47,5.51-94.42,43.59-107.77,92.69-14.5,51.39,4.11,106.89,46.09,139.76.47.37.94.72,1.41,1.08.76-1.34,1.53-2.61,2.29-3.78,40.31-62.03,128.55-49.72,157.94,7.69,13.53-9.15,25.64-20.84,35.53-34.95,10.53-14.87,18.1-31.77,22.25-49.51,8.73-7.06,16.71-14.49,23.66-22.62.07-2,.12-4.01.12-6.03,0-8.22-.61-16.29-1.79-24.18-10.99,16.64-26.2,30.22-43.53,43-4.39,3.24-5.5,3.11-9.81-.15-29.58-22.36-52.66-45.24-59.55-83.43-1.83-10.12-2.92-26.47-1.84-36.62.18-1.72.94-2.92,2.25-3.98ZM221.18,224.44c-17.01,32.86-63.5,37.23-86.32,7.94-25.23-32.39-4.5-80.37,36.44-83.53,40.51-3.13,68.59,39.44,49.88,75.59Z"
            fill="var(--icon-subject-color)" />
    </g>
    <g id="field">
        <path
            d="M314.69,228.91c-4.15,17.74-11.72,34.65-22.25,49.51-44.95,64.07-135.59,78.48-197.17,29.95-41.98-32.87-60.59-88.37-46.09-139.76,13.35-49.1,57.3-87.18,107.77-92.69,4.51-.53,9.04-.76,13.57-.81l-.18,12.38c-.07,5.05,5.35,8.28,9.75,5.82l70.75-39.49c4.41-2.46,4.5-8.77.16-11.36L181.45.94c-4.34-2.59-9.85.49-9.92,5.54l-.18,12.52c-34.04,1.49-67.59,12.69-95.47,32.29C-14.76,114.68-26.63,245.18,53.46,322.24c49.17,47.43,123.8,61.06,186.31,33.3,59.19-25.57,99.14-86.03,99.35-150.14-7.12,8.48-15.38,16.19-24.43,23.51Z" fill="currentColor" />
        <path
            d="M171.28,148.85c40.51-3.13,68.59,39.44,49.88,75.59-17.01,32.86-63.5,37.23-86.32,7.94-25.23-32.39-4.5-80.37,36.44-83.53Z" fill="currentColor" />
        <path
            d="M175.47,363.35c33.04,0,63.77-9.84,89.45-26.73-14.91-76.45-120.64-100.55-165.91-30.88-4.96,7.64-10.24,19.17-12.96,30.9,25.68,16.88,56.4,26.71,89.42,26.71Z" fill="currentColor" />
    </g>
    <g id="accent">
        <path
            d="M287.32,66.22c.66-.11,1.3-.16,1.96-.06l62.47,28.19c1.97,1.13,2.91,2.58,3.11,4.86.94,10.66.02,26.03-1.91,36.58-6.86,37.51-30.23,61.55-59.7,83.29-4.39,3.24-5.5,3.11-9.81-.15-29.58-22.36-52.66-45.24-59.55-83.43-1.83-10.12-2.92-26.47-1.84-36.62.18-1.72.94-2.92,2.25-3.98l63.02-28.68ZM276.26,99.49c-2.76.61-4.66,3.12-4.41,5.97l11.81,57.83c2.56,3.46,7.03,3.6,9.58,0l11.71-57.21c.67-3.06-1.49-6.21-4.6-6.63-7.25-.99-16.62.61-24.09.05ZM286.99,171.57c-13.72,1.62-12.17,22.97,2.32,22.07,14.45-.9,12.97-23.87-2.32-22.07Z" fill="var(--icon-accent-color)" />
    </g>
</svg>