<?xml version="1.0" encoding="UTF-8"?>
<svg id="Layer_2" xmlns="http://www.w3.org/2000/svg" viewBox="0 0 43.97 93.8">
    <g id="Layer_1-2">
        <path
            d="M43.96,52.19l-8.93-8.93c.17-8.21-.75-16.44-2.87-24.21-1.4-5.15-4.68-14.14-8.2-18.07-1.3-1.46-2.77-1.21-3.96.21-1.02,1.21-2.13,3.23-2.9,4.65-5.76,10.55-8.19,24.34-8,37.27L.01,52.2v21.69c.04.7.86,1.19,1.45.73l11.13-8.39s-.01-.04-.02-.06c.01.01.02.04.03.05l18.81.03h0s11.1,8.4,11.1,8.4c.59.39,1.42-.09,1.46-.78v-21.69ZM27.7,38.37c-5.12,7.9-16.69-.68-10.8-7.85,5.28-6.41,15.25.97,10.8,7.85Z" fill="var(--icon-subject-color)" />
        <path
            d="M27.4,82.39c.66-2.44-.31-5.47-2.01-7.28.27,5.82-1.41,11.51-3.87,16.73l-1.09,1.96c.07-4.01-.7-7.69-2.33-11.36-.6-1.36-1.41-2.63-1.95-4.03-1.29-3.32-1.02-6.41-.15-9.79l13.15.09c2.82,3.28,1.89,10.19-.88,13.22-.22.24-.51.64-.87.46Z" fill="var(--icon-subject-color)" />
    </g>
</svg>