<?xml version="1.0" encoding="UTF-8"?>
<svg id="Layer_2" xmlns="http://www.w3.org/2000/svg" viewBox="0 0 96 96">
    <g id="field">
        <rect width="96" height="96" rx="4.27" ry="4.27" fill="var(--icon-field-color)" />
    </g>
    <g id="subject">
        <rect x="85" y="5" width="6" height="18" rx="2.96" ry="2.96" fill="var(--icon-subject-color)" />
        <rect x="85" y="73" width="6" height="18" rx="2.96" ry="2.96" fill="var(--icon-subject-color)" />
        <rect x="85" y="50.33" width="6" height="18" rx="2.96" ry="2.96" fill="var(--icon-subject-color)" />
        <rect x="85" y="27.67" width="6" height="18" rx="2.96" ry="2.96" fill="var(--icon-subject-color)" />
        <rect x="72.66" y="5" width="18" height="6" rx="2.96" ry="2.96" fill="var(--icon-subject-color)" />
        <rect x="4.66" y="5" width="18" height="6" rx="2.96" ry="2.96" fill="var(--icon-subject-color)" />
        <rect x="27.32" y="5" width="18" height="6" rx="2.96" ry="2.96" fill="var(--icon-subject-color)" />
        <rect x="49.99" y="5" width="18" height="6" rx="2.96" ry="2.96" fill="var(--icon-subject-color)" />
        <rect x="73" y="85" width="18" height="6" rx="2.96" ry="2.96" fill="var(--icon-subject-color)" />
        <rect x="5" y="85" width="18" height="6" rx="2.96" ry="2.96" fill="var(--icon-subject-color)" />
        <rect x="27.67" y="85" width="18" height="6" rx="2.96" ry="2.96" fill="var(--icon-subject-color)" />
        <rect x="50.33" y="85" width="18" height="6" rx="2.96" ry="2.96" fill="var(--icon-subject-color)" />
        <rect x="4.66" y="5" width="6" height="18" rx="2.96" ry="2.96" fill="var(--icon-subject-color)" />
        <rect x="4.66" y="73" width="6" height="18" rx="2.96" ry="2.96" fill="var(--icon-subject-color)" />
        <rect x="4.66" y="50.33" width="6" height="18" rx="2.96" ry="2.96" fill="var(--icon-subject-color)" />
        <rect x="4.66" y="27.67" width="6" height="18" rx="2.96" ry="2.96" fill="var(--icon-subject-color)" />
        <path
            d="M72.09,20.81h-18.02c-1.65,0-2.99,1.34-2.99,2.99v.02c0,.83.34,1.58.88,2.12.05.06.09.13.15.18l6.71,6.71-14.57,14.57s-.08-.01-.12-.01H8.79c-2.28,0-4.13,1.85-4.13,4.13v35.35c0,2.28,1.85,4.13,4.13,4.13h35.35c2.28,0,4.13-1.85,4.13-4.13v-35l14.8-14.8,6.9,6.9c1.16,1.16,3.05,1.16,4.21,0l.03-.03c.58-.58.87-1.35.87-2.12,0,0,0-.01,0-.02v-17.99h0v-.02c0-1.65-1.34-2.99-2.99-2.99Z"
            fill="var(--icon-subject-color)" />
    </g>
</svg>