<?xml version="1.0" encoding="UTF-8"?>
<svg id="Layer_2" xmlns="http://www.w3.org/2000/svg" viewBox="0 0 408.62 408.58">
    <g id="subject">
        <path
            d="M336.14,256.47v-32.11l-2.59-8.99c-5.45-14.13-18.01-22.01-32.91-22.98-12.35-.8-49.32-1.52-59.7,1.85-10.33,3.36-18.51,11.97-22.3,22.01h-28.49c-4.22-11.11-13.18-19.76-24.87-22.64-10.81-2.66-47.3-2.22-59.39-1.08-13.57,1.28-25.92,9.99-30.65,22.84l-2.59,8.99v32.11c0-.06,0-.11,0-.17l2.58,8.99c9.25,25.5,38.95,24.65,61.68,22.94,25.83-1.94,49.63-22.11,53.94-47.86h27.08c4.27,25.47,27.67,45.61,53.23,47.77,22.82,1.92,53.09,2.77,62.38-22.84l2.58-8.99c0,.06,0,.11,0,.17ZM165.66,241.91c-5.14,13.29-17.86,21.35-31.89,22.4-5.61.42-23.65.8-28.4-.41-3.96-1.01-7.77-4.98-8.58-8.99-.77-3.81-.71-26.21.2-29.78,1.15-4.52,4.74-7.16,8.99-8.58l53.74.2c11.49,3.96,9.55,15.85,5.95,25.16ZM312.21,253.52c-.63,5.18-4.83,9.89-10.05,10.71-7.07,1.11-28.42.5-35.32-1.31-14.31-3.75-25.41-17.07-26.41-31.88-.44-6.54,2.19-13.05,9.26-14.49,7.04-1.43,43.83-1.17,51.74-.2,5.63.69,10.09,5.15,10.78,10.78.66,5.43.66,20.95,0,26.39Z"
            fill="var(--icon-subject-color)" />
    </g>
    <g id="field">
        <path
            d="M217.94,240.37c4.27,25.47,27.67,45.61,53.23,47.77,22.82,1.92,53.09,2.77,62.38-22.84l2.58-8.99c1.8,33.07-3.31,64.29-21.53,92.23-52.35,80.25-168.74,80.02-220.72-.48-17.98-27.84-23-58.87-21.22-91.75l2.58,8.99c9.25,25.5,38.95,24.65,61.68,22.94,25.83-1.94,49.63-22.11,53.94-47.86h27.08ZM246.44,319.09c9.29-10.33-.37-24.85-13.07-19.85-3.6,1.42-6.71,5.52-10.04,7.52-11.38,6.82-27.67,6.58-38.83-.61-2.39-1.54-4.96-4.75-7.47-6.11-12.93-6.99-24.62,7.98-14.66,19.05,20.11,22.37,63.95,22.36,84.07,0Z"
            fill="var(--icon-field-color)" />
        <path
            d="M336.14,168.47v55.89l-2.59-8.99c-5.45-14.13-18.01-22.01-32.91-22.98-12.35-.8-49.32-1.52-59.7,1.85s-18.51,11.97-22.3,22.01h-28.49c-4.22-11.11-13.18-19.76-24.87-22.64-10.81-2.66-47.3-2.22-59.39-1.08-13.57,1.28-25.92,9.99-30.65,22.84l-2.59,8.99v-55.89h263.49Z"
            fill="var(--icon-field-color)" />
        <path
            d="M105.97,216.56l53.74.2c11.49,3.96,9.55,15.85,5.95,25.16-5.14,13.29-17.86,21.35-31.89,22.4-5.61.42-23.65.8-28.4-.41-3.96-1.01-7.77-4.98-8.58-8.99s-.71-26.21.2-29.78c1.15-4.52,4.74-7.16,8.99-8.58Z"
            fill="var(--icon-field-color)" />
        <path
            d="M249.69,216.56c7.04-1.43,43.84-1.17,51.74-.2,5.63.69,10.09,5.15,10.78,10.78s.66,20.95,0,26.39-4.83,9.89-10.05,10.71c-7.07,1.11-28.42.5-35.32-1.31-14.31-3.75-25.41-17.07-26.41-31.88-.44-6.54,2.19-13.05,9.26-14.49Z"
            fill="var(--icon-field-color)" />
        <path
            d="M48.7,199.61v81.44c-7.69-3.48-14.25-10.81-18.21-18.12-7.53-13.9-7.67-30.67-.29-44.69,3.94-7.49,10.69-15.09,18.5-18.63Z"
            fill="var(--icon-field-color)" />
        <path
            d="M360.1,281.05v-81.44c7.69,3.48,14.25,10.81,18.21,18.12,7.53,13.9,7.67,30.67.29,44.69-3.94,7.49-10.69,15.09-18.5,18.63Z"
            fill="var(--icon-field-color)" />
        <polygon
            points="104.6 144.52 115.69 121.06 116.94 120.51 292.49 120.53 304.21 144.52 104.6 144.52"
            fill="var(--icon-field-color)" />
        <path
            d="M207.59,0l193.78,96.45c2.9,2.07,5.96,4.73,6.88,8.29l.37,101.47c-2.32,8.75-12.63,12.45-19.75,6.54-.88-.73-4.02-5.82-4.02-6.36v-81.84l-53.04,19.2c-7.61-12.51-12.75-28.89-20.56-41.01-2.34-3.63-4.83-5.74-9.23-6.74l-193.83-.19c-4.98.59-8.04,2.91-10.63,6.94-7.8,12.11-12.96,28.48-20.54,41L8.23,119.12c-4.46-1.54-5.82-4.5-8.23-8.14v-6.39c2.33-3.52,3.89-6.55,7.96-8.41L201.21,0h6.39Z"
            fill="var(--icon-field-color)" />
    </g>
</svg>