<?xml version="1.0" encoding="UTF-8"?>
<svg id="Layer_2" xmlns="http://www.w3.org/2000/svg" viewBox="0 0 485.06 439.35">
    <g id="field">
        <path
            d="M475.22,330.37L305.45,36.33c-27.97-48.44-97.88-48.44-125.85,0L9.84,330.37c-27.97,48.44,6.99,108.99,62.92,108.99h339.52c55.93,0,90.89-60.55,62.92-108.99ZM206.39,111.57c0-3.99,6.62-11.11,10.89-11.59,15.69,1.06,33.56-1.59,48.98-.09,4.18.41,7.58,2.66,9.87,6.19.46.7,2.54,5.14,2.54,5.49v34.13h-72.28v-34.13ZM159.6,157.14l165.18-.12c28.12,5.85,28.74,44.49.8,51.26h-166.1c-27.55-6.63-27.5-44.65.12-51.14ZM135.52,219.8l213.34-.12c31.28,4.95,30.53,48.01-.72,52.11l-211.93-.08c-30.3-4.69-31.09-46.55-.68-51.91ZM113.06,282.47l257.55-.23c32.73.85,37.25,45.82,4.83,52.2l-266.57-.07c-30.87-6.71-27.36-50.13,4.19-51.89ZM418.25,360.38c-3.21,6.46-17.51,27.74-22.75,31.86-4.21,3.31-9.26,5.4-14.52,6.36l-275.41.12c-6.28-.61-12.07-3.19-16.86-7.24-5.34-4.52-18.13-23.91-21.6-30.61-3.46-6.67-2.9-12.53,4.94-15l342.21.34c6.23,3.06,6.97,8.16,3.99,14.17Z" fill="var(--icon-field-color)" />
    </g>
    <g id="accent">
        <path
            d="M113.06,282.14l257.55-.23c32.73.85,37.25,45.82,4.83,52.2l-266.57-.07c-30.87-6.71-27.36-50.13,4.19-51.89Z"
            fill="var(--icon-accent-color)" />
        <path
            d="M135.52,219.46l213.34-.12c31.28,4.95,30.53,48.01-.72,52.11l-211.93-.08c-30.3-4.69-31.09-46.55-.68-51.91Z"
            fill="var(--icon-accent-color)" />
        <path
            d="M159.6,156.81l165.18-.12c28.12,5.85,28.74,44.49.8,51.26h-166.11c-27.55-6.63-27.5-44.65.12-51.14Z"
            fill="var(--icon-accent-color)" />
    </g>
    <g id="subject">
        <path
            d="M278.67,145.37h-72.28v-34.13c0-3.99,6.62-11.11,10.89-11.59,15.69,1.06,33.56-1.59,48.98-.09,4.18.41,7.58,2.66,9.87,6.19.46.7,2.54,5.14,2.54,5.49v34.13Z"
            fill="var(--icon-subject-color)" />
        <path
            d="M72.05,345.54l342.21.34c6.23,3.06,6.97,8.16,3.99,14.17-3.21,6.46-17.51,27.74-22.75,31.86-4.21,3.31-9.26,5.4-14.52,6.36l-275.41.12c-6.28-.61-12.07-3.19-16.86-7.24-5.34-4.52-18.13-23.91-21.6-30.61-3.46-6.67-2.9-12.53,4.94-15Z"
            fill="var(--icon-subject-color)" />
    </g>
</svg>