<?xml version="1.0" encoding="UTF-8"?>
<svg id="Layer_2" xmlns="http://www.w3.org/2000/svg" viewBox="0 0 384 384">
    <g id="subject">
        <path
            d="M270,0c7.17,7.67,14.59,15.18,22.11,22.52,29.96,29.24,59.94,58.61,90.03,87.72.87,9.11.12,18.28.34,27.41.67,28.19.42,56.46.77,84.73.02,1.27-.48,3.33.76,4.11v43.5l-110.75,112.38c-8.96.42-17.95-.12-26.91.09-28.2.68-56.46.42-84.73.77-1.27.02-3.33-.48-4.11.76h-43.5L1.66,273.59c-.49-9.06.07-18.18-.13-27.25-.63-27.94-.42-55.96-.77-83.98-.02-1.27.48-3.33-.76-4.11v-44.25C36.2,78.33,71.1,41.4,107.27,5.64c1.16-1.15,1.73-2.7,2.97-3.78,38.61-1.39,77.26-1.21,115.97-1.06l2.54-.8h41.25ZM206.1,39.22c-26.09.22-52.41.61-78.58.92l-88.36,90.14.75,125.69,90.38,88.88c41.94.57,83.73-1.07,125.69-.75l88.88-90.38c.32-42.1-.75-84.08-.99-126.21l-89.62-88.13c-16.03-.85-32.1-.31-48.14-.17Z" fill="var(--icon-subject-color)" />
        <path
            d="M235.5,202.88c.36,1.18,3.83,2.44,5.06,1.34,1.91-.94,2.2-3.16,2.44-5.1l.36-89.64c5.63-12.93,23.15-10.27,24.43,4.12,2.89,32.44-2.2,69.17-.07,102.07.9,24.43,3.34,51.63-5.2,74.98-17.63,48.2-67.69,30.97-107.64,34.11-6.85-.78-12.16-8.76-15.99-14.01-22.3-30.6-37.06-68.76-55.86-101.63-5.39-17.91,16.68-29.26,28.3-14.06l27.64,47.72c3.9,2.67,6.63-.59,6.57-4.61l-.05-144.8c2.85-13.37,21.23-13.87,24.59-.55l.57,109.68c2.04,3.05,4.68,3.04,6.71,0l.39-133.11c1.64-14.6,20.67-15.95,24.7-2.2l.03,132.72c.82,6.91,7.51,4.54,7.51,2.99v-118.5c0-.4,1.46-4.24,1.83-4.92,4.62-8.59,18.31-8.02,22.31,1.03.26.58,1.36,3.67,1.36,3.89v118.5Z" fill="var(--icon-subject-color)" />
    </g>
    <g id="field">
        <path
            d="M206.1,39.22c16.04-.14,32.11-.68,48.14.17l89.62,88.13c.23,42.13,1.31,84.11.99,126.21l-88.88,90.38c-41.97-.32-83.75,1.32-125.69.75l-90.38-88.88-.75-125.69L127.51,40.14c26.17-.31,52.49-.69,78.58-.92ZM235.5,202.88v-118.5c0-.22-1.11-3.31-1.36-3.89-4-9.05-17.69-9.62-22.31-1.03-.37.68-1.83,4.52-1.83,4.92v118.5c0,1.55-6.7,3.92-7.51-2.99l-.03-132.72c-4.04-13.75-23.06-12.4-24.7,2.2l-.39,133.11c-2.03,3.04-4.67,3.05-6.71,0l-.57-109.68c-3.36-13.31-21.73-12.82-24.59.55l.05,144.8c.06,4.02-2.68,7.28-6.57,4.61l-27.64-47.72c-11.62-15.2-33.69-3.85-28.3,14.06,18.8,32.87,33.57,71.03,55.86,101.63,3.83,5.25,9.14,13.23,15.99,14.01,39.95-3.14,90.01,14.09,107.64-34.11,8.54-23.35,6.1-50.54,5.2-74.98-2.13-32.89,2.96-69.62.07-102.07-1.28-14.39-18.8-17.05-24.43-4.12l-.36,89.64c-.24,1.93-.53,4.15-2.44,5.1-1.22,1.09-4.7-.17-5.06-1.34Z"
            fill="var(--icon-field-color)" />
    </g>
</svg>