<?xml version="1.0" encoding="UTF-8"?>
<svg id="Layer_2" xmlns="http://www.w3.org/2000/svg" viewBox="0 0 438.76 364.78">
    <g id="subject">
        <path
            d="M428.84,42.05c-4.4-3.68-8.96-5.14-14.45-6.41h-32.72c.8,2.09,1.41,4.3,1.89,6.65v120.82c-2.06,6.8-4.15,13.51-8.97,18.97l-156.23,156.49c-.38.36-.78.69-1.17,1.02,5.44,5.46,10.86,10.93,16.26,16.43,4.44,3.81,10.78,7.87,16.69,8.67,2.17.29,4.81-.21,7.06,0,6.26-1.49,11.65-3.91,16.38-8.34l156.23-156.49c4.82-5.46,6.91-12.17,8.97-18.97V60.06c-1.48-7.23-4.2-13.22-9.93-18.01Z" fill="currentColor" />
        <path
            d="M304.06,0c5.49,1.27,10.05,2.74,14.45,6.41,5.73,4.79,8.45,10.78,9.93,18.01v120.82c-2.06,6.8-4.15,13.51-8.97,18.97l-156.23,156.49c-4.73,4.43-10.12,6.85-16.38,8.34-2.24-.21-4.89.29-7.06,0-5.91-.79-12.25-4.85-16.69-8.67-39.21-39.96-79.83-78.68-118.2-119.4-6.48-9.9-6.52-20.82-.39-30.89L163.86,9.62c5.7-5.11,12.37-7.56,19.59-9.62h120.62ZM245.57,54.78c-35.56.87-34.57,55.34,1,55.05,35.95-.29,35.48-55.95-1-55.05Z" fill="currentColor" />
    </g>
    <g id="field">
        <path d="M246.6,109.78c35.95-.29,35.48-55.95-1-55.05-35.56.87-34.57,55.34,1,55.05Z"
            fill="var(--icon-field-color)" />
        <path
            d="M373.75,24.14c-4.4-3.68-8.96-5.14-14.45-6.41h-32.72c.8,2.09,1.41,4.3,1.89,6.65v120.82c-2.06,6.8-4.15,13.51-8.97,18.97l-156.23,156.49c-.38.36-.78.69-1.17,1.02,5.44,5.46,10.86,10.93,16.26,16.43,4.44,3.81,10.78,7.87,16.69,8.67,2.17.29,4.81-.21,7.06,0,6.26-1.49,11.65-3.91,16.38-8.34l156.23-156.49c4.82-5.46,6.91-12.17,8.97-18.97V42.15c-1.48-7.23-4.2-13.22-9.93-18.01Z"
            fill="var(--icon-field-color)" />
    </g>
</svg>