<?xml version="1.0" encoding="UTF-8"?>
<svg id="Layer_2" xmlns="http://www.w3.org/2000/svg" viewBox="0 0 508.49 440.37">
    <g id="field">
        <polygon
            points="381.37 0 127.12 0 0 220.18 127.12 440.37 381.37 440.37 508.49 220.18 381.37 0"
            fill="var(--icon-field-color)" />
    </g>
    <g id="accent">
        <circle cx="321.57" cy="84.34" r="25" fill="var(--icon-accent-color)" />
        <path
            d="M299.56,117.34h44.01c11.03,0,19.99,8.96,19.99,19.99v18.01c0,5.52-4.48,10-10,10h-64.01c-5.52,0-10-4.48-10-10v-18.01c0-11.03,8.96-19.99,19.99-19.99Z"
            fill="var(--icon-accent-color)" />
        <circle cx="321.57" cy="300.03" r="25" fill="var(--icon-accent-color)" />
        <path
            d="M299.56,333.03h44.01c11.03,0,19.99,8.96,19.99,19.99v18.01c0,5.52-4.48,10-10,10h-64.01c-5.52,0-10-4.48-10-10v-18.01c0-11.03,8.96-19.99,19.99-19.99Z"
            fill="var(--icon-accent-color)" />
        <circle cx="134.88" cy="192.18" r="25" fill="var(--icon-accent-color)" />
        <path
            d="M112.87,225.18h44.01c11.03,0,19.99,8.96,19.99,19.99v18.01c0,5.52-4.48,10-10,10h-64.01c-5.52,0-10-4.48-10-10v-18.01c0-11.03,8.96-19.99,19.99-19.99Z"
            fill="var(--icon-accent-color)" />
    </g>
    <g id="subject">
        <path
            d="M213.46,187.75l40.79-23.55c-5.72-7.41-10.23-15.79-13.27-24.85l-42.46,24.51c6.22,7.02,11.3,15.08,14.93,23.88Z"
            fill="var(--icon-subject-color)" />
        <path
            d="M192.48,282.67l46.17,26.66c2.12-9.45,5.81-18.3,10.79-26.27l-39.58-22.85c-4.51,8.44-10.41,16.03-17.39,22.46Z"
            fill="var(--icon-subject-color)" />
        <path
            d="M321.57,243.03c-46.94,0-85,38.06-85,85s38.06,85,85,85,85-38.06,85-85-38.06-85-85-85ZM321.57,275.03c13.81,0,25,11.19,25,25s-11.19,25-25,25-25-11.19-25-25,11.19-25,25-25ZM363.57,371.03c0,5.52-4.48,10-10,10h-64.01c-5.52,0-10-4.48-10-10v-18.01c0-11.04,8.95-19.99,19.99-19.99h44.01c11.04,0,19.99,8.95,19.99,19.99v18.01Z" fill="var(--icon-subject-color)" />
        <path
            d="M134.88,135.18c-46.94,0-85,38.06-85,85s38.06,85,85,85,85-38.06,85-85-38.06-85-85-85ZM134.88,167.18c13.81,0,25,11.19,25,25s-11.19,25-25,25-25-11.19-25-25,11.19-25,25-25ZM176.88,263.19c0,5.52-4.48,10-10,10h-64.01c-5.52,0-10-4.48-10-10v-18.01c0-11.04,8.95-19.99,19.99-19.99h44.01c11.04,0,19.99,8.95,19.99,19.99v18.01Z" fill="var(--icon-subject-color)" />
        <path
            d="M321.57,27.34c-46.94,0-85,38.06-85,85s38.06,85,85,85,85-38.06,85-85-38.06-85-85-85ZM321.57,59.34c13.81,0,25,11.19,25,25s-11.19,25-25,25-25-11.19-25-25,11.19-25,25-25ZM363.57,155.34c0,5.52-4.48,10-10,10h-64.01c-5.52,0-10-4.48-10-10v-18.01c0-11.04,8.95-19.99,19.99-19.99h44.01c11.04,0,19.99,8.95,19.99,19.99v18.01Z" fill="var(--icon-subject-color)" />
    </g>
</svg>