<?xml version="1.0" encoding="UTF-8"?>
<svg id="Layer_2" xmlns="http://www.w3.org/2000/svg" viewBox="0 0 496.42 496.42">
    <g id="subject-layer">
        <path
            d="M248.6,434.88c-6.64,0-13.45-1.12-20.23-3.32-11.85-3.85-34.54-15.99-53.77-53.99-24.88-.26-48.9-1.8-69.48-16.39-18.16-12.88-27.33-31.7-26.5-54.41.68-18.72,8.08-39.53,20.85-58.65-23.86-39.25-27.43-72.02-10.6-97.42,14.59-22.02,41.82-32.72,83.26-32.72.83,0,1.66,0,2.48.01,6.54-13.2,29.49-53.36,67.41-57.12,2.07-.21,4.15-.31,6.2-.31,15.94,0,31.05,6.11,44.92,18.15,14.25,12.37,23.77,28.08,29.31,39.28,23.78.22,48.68,1.75,69.47,16.39,38.25,26.95,30.43,76.09,5.66,113.06,17.65,28.62,33.08,69.29,7.47,101.65-20.22,25.54-55.69,28.49-80.61,28.49-.67,0-1.33,0-1.99,0-7.99,16.03-18.24,29.69-29.68,39.53-13.71,11.79-28.57,17.77-44.16,17.77ZM191.13,375.3c16.13,32.9,41.03,44.62,57.61,44.62h0c5.55,0,11.14-1.08,16.64-3.21,12.93-5.01,30.33-19.85,40.5-41.85-16.87-1.85-33.22-6.85-49.06-11.69-2.93-.9-5.86-1.79-8.79-2.67-17.87,6.45-37,11.42-56.91,14.79ZM109.73,261.88c-23.88,35.99-14.82,61.98-11.44,69.15,13.04,27.65,50.55,30.64,66.07,30.64h0c.75,0,1.5,0,2.25-.02-6.05-18.81-12.27-38.24-15.34-58.2-16.81-13.17-30.95-28.99-41.54-41.57ZM330.41,361.65c.75.01,1.5.02,2.25.02,15.52,0,53.03-2.98,66.08-30.64,3.39-7.19,12.49-33.26-11.44-69.15-12.24,14.42-25.74,29.36-41.54,41.58-2.76,18.44-8.44,36.39-13.94,53.75-.47,1.48-.94,2.96-1.41,4.45ZM183.34,360.62c.09,0,.2,0,.34,0,6.73,0,39.04-7.58,43.44-9.18.2-.08.43-.14.66-.21.15-.04.35-.1.53-.16-.03-.03-.06-.07-.09-.11-.64-.39-4.35-1.89-7.07-3-2.99-1.21-5.81-2.36-6.83-2.89-1.71-.88-3.4-1.89-5.04-2.86-2.66-1.58-5.4-3.22-8.28-4.35l-.09-.03-31.14-19.46,13.58,42.25ZM313.8,360.31l13.49-42.03-56.41,33.51,42.92,8.52ZM248.28,152.54c-.56,0-1.17.07-1.91.22-2.72.55-10.72,4.41-15.5,6.72-1.17.56-2.18,1.05-2.95,1.41-16.69,7.85-35.3,18.88-49.77,29.53-.86.63-1.81,1.28-2.79,1.96-4.37,3-9.32,6.39-10.29,10.85-4.17,19.15-4.17,69.94,0,89.09.97,4.46,5.92,7.86,10.29,10.85.98.67,1.93,1.32,2.79,1.96,15.47,11.38,35.6,23.21,52.53,30.89.6.27,1.36.62,2.21,1.02,4.52,2.11,12.93,6.03,15.96,6.03h.12c2.59-.11,11.04-4.08,15.58-6.21,1-.47,1.86-.87,2.51-1.17,7.54-3.43,16.43-8.07,25.02-13.08,10.02-5.84,33.46-20.44,37.83-25.75,2.08-2.52,2.66-8.2,3.08-12.35.08-.79.16-1.54.24-2.21,1.58-13.26,1.32-26.96,1.07-40.21l-.02-1.04c-.02-.94-.03-2.14-.04-3.52-.11-10.19-.36-34.05-4.32-38.86-3.43-4.17-19.43-14.22-26.26-18.51l-1.42-.89c-6.08-3.83-37.11-23.1-50.81-26.25l-.1-.02c-1.26-.29-2.09-.48-3.02-.48ZM348.65,280.7c9.46-8.66,20.94-20.01,29.69-33.24-9.27-12.3-19.25-23.26-29.69-32.63v65.86ZM118.68,247.45c8.76,13.23,20.24,24.58,29.7,33.24v-65.86c-10.92,9.8-20.9,20.76-29.7,32.62ZM345.75,192.11c15.82,12.23,29.33,27.18,41.59,41.62,12.45-17.43,18.2-39.07,15.03-56.79-2.35-13.17-9.23-23.59-20.45-30.98-9.23-6.08-23.57-11.02-34.88-12.02-1.29-.11-2.71-.17-4.35-.17-1.83,0-3.72.07-5.56.14-1.85.07-3.77.14-5.63.14-.67,0-1.31,0-1.91-.03,8.37,19.25,12.87,40.1,16.16,58.09ZM162.97,133.8c-15.03,0-29.49,2.91-40.71,8.18-13.83,6.5-22.77,16.28-26.57,29.07-2.02,6.81-6.91,31.26,14.04,62.64,12.24-14.43,25.75-29.37,41.56-41.59,3.3-18.05,7.81-38.96,16.22-58.22-1.5-.06-3.02-.09-4.53-.09ZM169.74,177.28l56.41-33.51-42.9-8.51-13.51,42.03ZM286.85,152.57l39.84,23.93c-2.37-13.82-7.48-27.18-12.42-40.12l-.46-1.2c-14.11,1.5-28.87,4.55-43.87,9.05-.35.1-.65.14-.89.16,0,.08.01.17.02.28l17.77,7.9ZM191.13,120.27c20.15,3.36,39.29,8.33,56.92,14.81,1.97-.61,3.94-1.23,5.91-1.85,16.75-5.25,34.06-10.68,51.92-12.53-10.18-22-27.57-36.83-40.5-41.84-5.52-2.14-11.14-3.22-16.7-3.22-16.53,0-41.38,11.72-57.55,44.63Z"
            fill="var(--icon-subject-color)" />
        <path
            d="M191.48,294.97c-18.69-22.71-22.35-52.14-9.81-78.72,12.45-26.37,37.8-42.75,66.17-42.75,4.42,0,8.95.4,13.45,1.18,24.73,4.3,45.47,20.91,55.49,44.43,9.8,23.02,7.46,48.92-6.28,69.29l-.24.35c-3.21,4.83-5.06,6.71-6.59,6.71-.37,0-.72-.11-1.01-.33l-.23-.17-.1-.27c-4.91-12.76-16.28-23.77-30.43-29.44l-1.51-.6,1.22-1.07c14.24-12.54,14.69-29.24,10.37-40.68-5.39-14.27-18.34-23.49-33-23.49-3.12,0-6.33.41-9.55,1.21-13.22,3.3-22.94,13.35-26,26.87-3.02,13.36,1.56,26.99,11.95,35.56l1.03.85-20.08,13.56-14.05,18.49-.8-.98Z"
            fill="var(--icon-subject-color)" />
        <path
            d="M248.46,321.93c-16.39,0-32.28-5.36-45.92-15.5l-.59-.44.24-.69c6.98-20.38,25.22-33.55,46.47-33.55s39.18,12.86,46.2,33.55l.23.69-.59.43c-13.72,10.14-29.64,15.5-46.04,15.5Z"
            fill="var(--icon-subject-color)" />
        <path
            d="M248.27,260.31c-7.03,0-13.09-2.55-17.52-7.38-3.95-4.3-6.31-10.1-6.63-16.34-.59-11.25,6.05-24.12,22.01-25.78,1.04-.11,2.07-.16,3.07-.16,15.2,0,22.89,12.14,23.59,23.41.7,11.18-5.45,24.09-20.62,26-1.32.17-2.63.25-3.9.25Z"
            fill="var(--icon-subject-color)" />
    </g>
    <g id="field-layer">
        <path
            d="M248.21,0C111.13,0,0,111.13,0,248.21s111.13,248.21,248.21,248.21,248.21-111.13,248.21-248.21S385.29,0,248.21,0ZM404.26,348.96c-19.36,24.45-53.29,28.36-82.44,28.1-17.45,35.38-50.48,67.91-93.14,54.03-24.14-7.85-42.48-32.15-53.46-54.03-24.61-.24-48.82-1.53-69.52-16.21-39.4-27.94-28.46-77.47-5.04-112.22-17.6-28.77-31.6-65.73-10.96-96.89,18.35-27.7,54.89-32.63,85.52-32.26,12.7-25.95,36.26-54.09,66.89-57.13,37.07-3.68,64.76,26.61,79.71,57.13,24.53.2,48.86,1.66,69.52,16.21,39.3,27.69,28.44,77.65,5.04,112.22,18.73,30.16,32.53,69.91,7.88,101.05Z"
            fill="var(--icon-field-color)" />
        <path
            d="M302.75,178.93c-11.63-7.33-38.62-23.5-51.12-26.37-2.13-.49-3.18-.75-5.45-.29-3.51.71-14.62,6.3-18.68,8.21-16.46,7.74-35.28,18.85-49.94,29.63-4.79,3.52-12.18,7.5-13.47,13.4-4.2,19.27-4.2,70.25,0,89.52,1.28,5.9,8.68,9.88,13.47,13.4,15.25,11.21,35.48,23.18,52.71,30.99,4.09,1.85,15.07,7.3,18.75,7.14,3.36-.14,14.6-5.71,18.46-7.47,8.23-3.74,17.28-8.56,25.1-13.13,7.72-4.5,33.35-20.2,38.09-25.98,2.67-3.25,3.01-10.65,3.54-15.08,1.63-13.68,1.31-27.86,1.05-41.38-.16-8.54.11-37.28-4.59-42.99-3.8-4.62-21.88-15.81-27.92-19.61ZM203.13,306.11c14.95-43.63,75.84-44.03,90.78,0-27.54,20.35-63.25,20.45-90.78,0ZM246.23,212.3c30.75-3.21,35.2,43.57,5.82,47.26-32.23,4.05-37.28-43.97-5.82-47.26ZM309.67,288.33c-.92,1.37-4.9,7.61-6.41,6.49-5.28-13.73-17.57-24.63-30.99-30.01,29.55-26.04,5.27-74.26-33.08-64.68-29,7.24-37.51,45.16-14.44,64.18l-19.11,12.9-13.38,17.61c-42.9-52.14,1.96-130.31,68.87-118.67,51.01,8.87,77.91,68.63,48.55,112.18Z"
            fill="var(--icon-field-color)" />
        <path
            d="M152.2,193.15c3.71-20.34,8.35-40.82,16.81-59.71-28.19-1.47-65.16,7.12-74.28,37.81-6.43,21.63,2.75,46.78,14.91,64.58,12.96-15.32,26.63-30.43,42.56-42.69Z"
            fill="var(--icon-field-color)" />
        <polygon points="228.9 143.78 182.56 134.59 167.98 179.98 228.9 143.78" fill="var(--icon-field-color)" />
        <path
            d="M307.37,122.05c-7.74-17.42-23.46-36.59-41.63-43.63-33.63-13.03-62.67,14.99-76.09,43.11,19.9,3.24,39.46,8.12,58.37,15.09,19.44-6.03,38.91-12.67,59.35-14.57Z"
            fill="var(--icon-field-color)" />
        <path
            d="M268.14,145.83l18.24,8.11,41.64,25c-2.31-15.37-8.05-29.97-13.55-44.36-15.16,1.56-30.24,4.8-44.82,9.17-1.47.44-1.82-.64-1.51,2.07Z"
            fill="var(--icon-field-color)" />
        <path
            d="M387.4,235.84c19.74-26.81,26.78-69.33-4.93-90.22-9.49-6.26-24.06-11.18-35.34-12.18-6.13-.54-12.9.4-19.1,0,8.46,18.9,13.1,39.37,16.81,59.72,15.93,12.26,29.6,27.36,42.56,42.69Z"
            fill="var(--icon-field-color)" />
        <path
            d="M149.38,283.44v-70.35c-11.87,10.43-22.54,22.08-31.92,34.81,8.75,13.39,20.13,24.86,31.92,35.54Z"
            fill="var(--icon-field-color)" />
        <path
            d="M347.65,213.09v70.35c11.78-10.68,23.17-22.15,31.92-35.54-9.47-12.64-20.04-24.4-31.92-34.81Z"
            fill="var(--icon-field-color)" />
        <path
            d="M344.83,303.39c-3.02,20.5-9.59,40.07-15.77,59.71,25.56.68,58.56-5.66,70.59-31.17,10.92-23.13,1.24-51.44-12.26-71.23-12.96,15.32-26.63,30.43-42.56,42.69Z"
            fill="var(--icon-field-color)" />
        <polygon points="314.48 361.95 329.06 316.56 268.13 352.76 314.48 361.95" fill="var(--icon-field-color)" />
        <path
            d="M189.65,375.02c13.38,28.09,42.54,56.11,76.09,43.11,18.17-7.04,33.88-26.21,41.63-43.63-20.44-2.03-39.84-8.73-59.36-14.56-18.95,6.86-38.48,11.79-58.36,15.08Z"
            fill="var(--icon-field-color)" />
        <path
            d="M109.64,260.7c-13.52,19.93-23.21,48.01-12.26,71.23,12.03,25.5,45.05,31.85,70.59,31.17-6.3-19.6-12.67-39.25-15.77-59.71-15.86-12.37-29.65-27.29-42.56-42.69Z"
            fill="var(--icon-field-color)" />
        <path
            d="M228.89,350.71c-.52-.56-11.95-4.92-14.12-6.04-4.46-2.3-8.67-5.39-13.41-7.25l-33.38-20.86,14.59,45.39c2.29,1.45,39.73-7.2,44.9-9.08,1.1-.4,2.96-.51,1.43-2.16Z"
            fill="var(--icon-field-color)" />
    </g>
</svg>