<?xml version="1.0" encoding="UTF-8"?>
<svg id="Layer_2" xmlns="http://www.w3.org/2000/svg" viewBox="0 0 238.3 229.39">
    <g id="subject">
        <path
            d="M63.74,89.06l109.09-.11c1.87-.03,3.27.91,4.2,2.47l.32,64.52c-.04,1.69-.84,3.25-2.48,3.8l-110.46.32c-1.69-.04-3.25-.84-3.8-2.48v-66.16c.72-1.16,1.7-2.13,3.13-2.36ZM123.14,97.21h-8.64v6.28c-2.48-.97-18.05,3.33-18.43,4.95l3.74,7.2c4.69-1.85,9.51-3.97,14.69-3.5v8.25h-5.69c-.84,0-4.64,1.36-5.69,1.77-4.42,1.75-8.14,4.84-12.18,7.27l5.64,6.64c5.16-3.97,11.08-7.86,17.92-7.43v9.42c-6.25,1.55-14.09,6.8-14.53,13.74h8.64c.07,0,.12-.73.56-1.19,1.05-1.07,1.96-1.87,3.24-2.66,6.36-3.9,11.05-2.48,16.05,2.66.45.46.5,1.19.56,1.19h8.64c-.56-7.58-8.24-11.73-14.53-14.33v-8.84c6.92-.6,12.89,2.08,17.53,7.04l6.42-5.67c-2.67-2.56-5.85-5.24-9.15-6.94-1.47-.75-6.11-2.68-7.53-2.68h-7.27v-8.25h5.69c1.83,0,8.12,3.22,8.57,3.11l4.57-7c-5.72-3.23-12.2-5.1-18.83-4.75v-6.28Z" fill="var(--icon-subject-color)" />
        <path
            d="M144.11,168.44v34.75c0,1.13-1.98,4.09-2.93,4.92-5.73,4.98-13.98.44-13.95-6.89l-2.75-32.79h19.64Z" fill="var(--icon-subject-color)" />
        <path
            d="M113.48,168.44l-2.75,32.79c-.07,7.39-8.05,11.81-13.95,6.89-1.13-.95-2.94-3.47-2.94-4.92v-34.75h19.64Z" fill="var(--icon-subject-color)" />
        <path d="M116.16,43.13c27.04-3.27,28.88,37.24,2.97,37.44-23.7.19-25.08-34.76-2.97-37.44Z" fill="var(--icon-subject-color)" />
    </g>
    <g id="field">
        <path
            d="M226.68,71.47L135.72,5.38c-9.88-7.18-23.26-7.18-33.13,0L11.62,71.47c-9.88,7.18-14.01,19.9-10.24,31.51l34.74,106.93c3.77,11.61,14.6,19.48,26.81,19.48h112.44c12.21,0,23.03-7.86,26.81-19.48l34.74-106.93c3.77-11.61-.36-24.34-10.24-31.51ZM116.16,43.13c27.04-3.27,28.88,37.24,2.97,37.44-23.7.19-25.08-34.76-2.97-37.44ZM110.74,201.47c-.07,7.39-8.05,11.81-13.95,6.89-1.13-.95-2.94-3.47-2.94-4.92v-34.75h19.64l-2.75,32.79ZM144.13,203.44c0,1.13-1.98,4.09-2.93,4.92-5.73,4.98-13.98.44-13.95-6.89l-2.75-32.79h19.64v34.75ZM175.04,159.74l-110.46.32c-1.69-.04-3.25-.84-3.8-2.48v-66.16c.72-1.16,1.7-2.13,3.13-2.36l109.09-.11c1.87-.03,3.27.91,4.2,2.47l.32,64.52c-.04,1.69-.84,3.25-2.48,3.8Z"
            fill="var(--icon-field-color)" />
    </g>
    <g id="accent">
        <path
            d="M123.14,97.21v6.28c6.63-.35,13.11,1.52,18.83,4.75l-4.57,7c-.44.11-6.74-3.11-8.57-3.11h-5.69v8.25h7.27c1.42,0,6.06,1.93,7.53,2.68,3.3,1.7,6.48,4.38,9.15,6.94l-6.42,5.67c-4.64-4.96-10.61-7.64-17.53-7.04v8.84c6.29,2.61,13.97,6.75,14.53,14.33h-8.64c-.07,0-.12-.73-.56-1.19-5-5.14-9.69-6.56-16.05-2.66-1.29.79-2.2,1.59-3.24,2.66-.45.46-.5,1.19-.56,1.19h-8.64c.44-6.95,8.28-12.19,14.53-13.74v-9.42c-6.85-.43-12.76,3.46-17.92,7.43l-5.64-6.64c4.04-2.42,7.76-5.51,12.18-7.27,1.05-.41,4.85-1.77,5.69-1.77h5.69v-8.25c-5.17-.46-10,1.66-14.69,3.5l-3.74-7.2c.38-1.62,15.95-5.92,18.43-4.95v-6.28h8.64Z"
            fill="var(--icon-accent-color)" />
    </g>
</svg>